%TF.GenerationSoftware,KiCad,Pcbnew,8.0.9-8.0.9-0~ubuntu20.04.1*%
%TF.CreationDate,2025-06-03T10:24:10+09:00*%
%TF.ProjectId,MINI VESC,4d494e49-2056-4455-9343-2e6b69636164,rev?*%
%TF.SameCoordinates,Original*%
%TF.FileFunction,Soldermask,Bot*%
%TF.FilePolarity,Negative*%
%FSLAX46Y46*%
G04 Gerber Fmt 4.6, Leading zero omitted, Abs format (unit mm)*
G04 Created by KiCad (PCBNEW 8.0.9-8.0.9-0~ubuntu20.04.1) date 2025-06-03 10:24:10*
%MOMM*%
%LPD*%
G01*
G04 APERTURE LIST*
G04 Aperture macros list*
%AMRoundRect*
0 Rectangle with rounded corners*
0 $1 Rounding radius*
0 $2 $3 $4 $5 $6 $7 $8 $9 X,Y pos of 4 corners*
0 Add a 4 corners polygon primitive as box body*
4,1,4,$2,$3,$4,$5,$6,$7,$8,$9,$2,$3,0*
0 Add four circle primitives for the rounded corners*
1,1,$1+$1,$2,$3*
1,1,$1+$1,$4,$5*
1,1,$1+$1,$6,$7*
1,1,$1+$1,$8,$9*
0 Add four rect primitives between the rounded corners*
20,1,$1+$1,$2,$3,$4,$5,0*
20,1,$1+$1,$4,$5,$6,$7,0*
20,1,$1+$1,$6,$7,$8,$9,0*
20,1,$1+$1,$8,$9,$2,$3,0*%
G04 Aperture macros list end*
%ADD10R,0.850000X0.850000*%
%ADD11O,0.850000X0.850000*%
%ADD12RoundRect,0.150000X0.150000X0.250000X-0.150000X0.250000X-0.150000X-0.250000X0.150000X-0.250000X0*%
%ADD13R,1.350000X1.350000*%
%ADD14RoundRect,0.200000X0.450000X-0.200000X0.450000X0.200000X-0.450000X0.200000X-0.450000X-0.200000X0*%
%ADD15O,1.300000X0.800000*%
%ADD16RoundRect,0.100000X-0.100000X0.217500X-0.100000X-0.217500X0.100000X-0.217500X0.100000X0.217500X0*%
%ADD17RoundRect,0.500000X0.500000X-0.750000X0.500000X0.750000X-0.500000X0.750000X-0.500000X-0.750000X0*%
%ADD18RoundRect,0.250000X-0.475000X0.250000X-0.475000X-0.250000X0.475000X-0.250000X0.475000X0.250000X0*%
%ADD19RoundRect,0.150000X0.150000X-0.587500X0.150000X0.587500X-0.150000X0.587500X-0.150000X-0.587500X0*%
%ADD20RoundRect,0.250000X0.475000X-0.250000X0.475000X0.250000X-0.475000X0.250000X-0.475000X-0.250000X0*%
%ADD21RoundRect,0.140000X-0.170000X0.140000X-0.170000X-0.140000X0.170000X-0.140000X0.170000X0.140000X0*%
%ADD22R,3.400000X1.300000*%
%ADD23RoundRect,0.100000X0.217500X0.100000X-0.217500X0.100000X-0.217500X-0.100000X0.217500X-0.100000X0*%
%ADD24RoundRect,0.200000X-0.450000X0.200000X-0.450000X-0.200000X0.450000X-0.200000X0.450000X0.200000X0*%
%ADD25RoundRect,0.150000X0.512500X0.150000X-0.512500X0.150000X-0.512500X-0.150000X0.512500X-0.150000X0*%
%ADD26RoundRect,0.500000X0.750000X0.500000X-0.750000X0.500000X-0.750000X-0.500000X0.750000X-0.500000X0*%
%ADD27RoundRect,0.140000X-0.140000X-0.170000X0.140000X-0.170000X0.140000X0.170000X-0.140000X0.170000X0*%
%ADD28RoundRect,0.140000X0.170000X-0.140000X0.170000X0.140000X-0.170000X0.140000X-0.170000X-0.140000X0*%
%ADD29RoundRect,0.250000X1.500000X-0.250000X1.500000X0.250000X-1.500000X0.250000X-1.500000X-0.250000X0*%
%ADD30RoundRect,0.250001X1.449999X-0.499999X1.449999X0.499999X-1.449999X0.499999X-1.449999X-0.499999X0*%
%ADD31RoundRect,0.250000X-1.500000X0.250000X-1.500000X-0.250000X1.500000X-0.250000X1.500000X0.250000X0*%
%ADD32RoundRect,0.250001X-1.449999X0.499999X-1.449999X-0.499999X1.449999X-0.499999X1.449999X0.499999X0*%
G04 APERTURE END LIST*
D10*
X95200000Y-109350000D03*
D11*
X95200000Y-110350000D03*
D12*
X116720000Y-125460000D03*
X115720000Y-125460000D03*
X101730000Y-126570000D03*
X100730000Y-126570000D03*
X109760000Y-125420000D03*
X108760000Y-125420000D03*
D13*
X110000000Y-137500000D03*
X107500000Y-137500000D03*
D14*
X96750000Y-115980000D03*
D15*
X96750000Y-114730000D03*
X96750000Y-113480000D03*
D13*
X105000000Y-137500000D03*
D16*
X113990000Y-100042500D03*
X113990000Y-100857500D03*
D17*
X112500000Y-123250000D03*
X112500000Y-119750000D03*
D18*
X107620000Y-109240000D03*
X107620000Y-111140000D03*
D19*
X107740000Y-100575000D03*
X105840000Y-100575000D03*
X106790000Y-98700000D03*
D17*
X100250000Y-123250000D03*
X100250000Y-119750000D03*
D20*
X103650000Y-114960000D03*
X103650000Y-113060000D03*
X109150000Y-99580000D03*
X109150000Y-97680000D03*
D21*
X107760000Y-97470000D03*
X107760000Y-98430000D03*
D22*
X111780000Y-100030000D03*
X111780000Y-97930000D03*
D23*
X113740000Y-104820000D03*
X112925000Y-104820000D03*
D24*
X99780000Y-98860000D03*
D15*
X99780000Y-100110000D03*
X99780000Y-101360000D03*
X99780000Y-102610000D03*
X99780000Y-103860000D03*
D14*
X103010000Y-101200000D03*
D15*
X103010000Y-99950000D03*
X103010000Y-98700000D03*
D25*
X113400000Y-101870000D03*
X113400000Y-102820000D03*
X113400000Y-103770000D03*
X111125000Y-103770000D03*
X111125000Y-102820000D03*
X111125000Y-101870000D03*
D26*
X108770000Y-122000000D03*
X105270000Y-122000000D03*
D27*
X105770000Y-101940000D03*
X106730000Y-101940000D03*
D28*
X109640000Y-103780000D03*
X109640000Y-102820000D03*
D29*
X101850000Y-115000000D03*
X101850000Y-113000000D03*
X101850000Y-111000000D03*
X101850000Y-109000000D03*
D30*
X96100000Y-117350000D03*
X96100000Y-106650000D03*
D23*
X111830000Y-104650000D03*
X111015000Y-104650000D03*
D31*
X110425000Y-109242500D03*
X110425000Y-111242500D03*
X110425000Y-113242500D03*
X110425000Y-115242500D03*
D32*
X116175000Y-106892500D03*
X116175000Y-117592500D03*
M02*
