%TF.GenerationSoftware,KiCad,Pcbnew,8.0.8-8.0.8-0~ubuntu20.04.1*%
%TF.CreationDate,2025-02-07T18:26:21+09:00*%
%TF.ProjectId,MINI VESC,4d494e49-2056-4455-9343-2e6b69636164,rev?*%
%TF.SameCoordinates,Original*%
%TF.FileFunction,Copper,L1,Top*%
%TF.FilePolarity,Positive*%
%FSLAX46Y46*%
G04 Gerber Fmt 4.6, Leading zero omitted, Abs format (unit mm)*
G04 Created by KiCad (PCBNEW 8.0.8-8.0.8-0~ubuntu20.04.1) date 2025-02-07 18:26:21*
%MOMM*%
%LPD*%
G01*
G04 APERTURE LIST*
G04 Aperture macros list*
%AMRoundRect*
0 Rectangle with rounded corners*
0 $1 Rounding radius*
0 $2 $3 $4 $5 $6 $7 $8 $9 X,Y pos of 4 corners*
0 Add a 4 corners polygon primitive as box body*
4,1,4,$2,$3,$4,$5,$6,$7,$8,$9,$2,$3,0*
0 Add four circle primitives for the rounded corners*
1,1,$1+$1,$2,$3*
1,1,$1+$1,$4,$5*
1,1,$1+$1,$6,$7*
1,1,$1+$1,$8,$9*
0 Add four rect primitives between the rounded corners*
20,1,$1+$1,$2,$3,$4,$5,0*
20,1,$1+$1,$4,$5,$6,$7,0*
20,1,$1+$1,$6,$7,$8,$9,0*
20,1,$1+$1,$8,$9,$2,$3,0*%
G04 Aperture macros list end*
%TA.AperFunction,SMDPad,CuDef*%
%ADD10RoundRect,0.140000X0.140000X0.170000X-0.140000X0.170000X-0.140000X-0.170000X0.140000X-0.170000X0*%
%TD*%
%TA.AperFunction,SMDPad,CuDef*%
%ADD11RoundRect,0.100000X0.217500X0.100000X-0.217500X0.100000X-0.217500X-0.100000X0.217500X-0.100000X0*%
%TD*%
%TA.AperFunction,SMDPad,CuDef*%
%ADD12RoundRect,0.100000X-0.217500X-0.100000X0.217500X-0.100000X0.217500X0.100000X-0.217500X0.100000X0*%
%TD*%
%TA.AperFunction,SMDPad,CuDef*%
%ADD13RoundRect,0.100000X0.100000X-0.217500X0.100000X0.217500X-0.100000X0.217500X-0.100000X-0.217500X0*%
%TD*%
%TA.AperFunction,SMDPad,CuDef*%
%ADD14RoundRect,0.050000X-0.285000X-0.100000X0.285000X-0.100000X0.285000X0.100000X-0.285000X0.100000X0*%
%TD*%
%TA.AperFunction,SMDPad,CuDef*%
%ADD15R,0.890000X0.420000*%
%TD*%
%TA.AperFunction,SMDPad,CuDef*%
%ADD16RoundRect,0.140000X-0.170000X0.140000X-0.170000X-0.140000X0.170000X-0.140000X0.170000X0.140000X0*%
%TD*%
%TA.AperFunction,SMDPad,CuDef*%
%ADD17RoundRect,0.200000X-0.275000X0.200000X-0.275000X-0.200000X0.275000X-0.200000X0.275000X0.200000X0*%
%TD*%
%TA.AperFunction,SMDPad,CuDef*%
%ADD18RoundRect,0.100000X-0.100000X0.217500X-0.100000X-0.217500X0.100000X-0.217500X0.100000X0.217500X0*%
%TD*%
%TA.AperFunction,SMDPad,CuDef*%
%ADD19R,1.200000X1.400000*%
%TD*%
%TA.AperFunction,SMDPad,CuDef*%
%ADD20RoundRect,0.075000X0.700000X0.075000X-0.700000X0.075000X-0.700000X-0.075000X0.700000X-0.075000X0*%
%TD*%
%TA.AperFunction,SMDPad,CuDef*%
%ADD21RoundRect,0.075000X0.075000X0.700000X-0.075000X0.700000X-0.075000X-0.700000X0.075000X-0.700000X0*%
%TD*%
%TA.AperFunction,SMDPad,CuDef*%
%ADD22R,0.650000X0.350000*%
%TD*%
%TA.AperFunction,SMDPad,CuDef*%
%ADD23R,1.550000X2.400000*%
%TD*%
%TA.AperFunction,SMDPad,CuDef*%
%ADD24RoundRect,0.150000X0.150000X-0.587500X0.150000X0.587500X-0.150000X0.587500X-0.150000X-0.587500X0*%
%TD*%
%TA.AperFunction,SMDPad,CuDef*%
%ADD25RoundRect,0.140000X0.170000X-0.140000X0.170000X0.140000X-0.170000X0.140000X-0.170000X-0.140000X0*%
%TD*%
%TA.AperFunction,SMDPad,CuDef*%
%ADD26RoundRect,0.112500X0.112500X0.200000X-0.112500X0.200000X-0.112500X-0.200000X0.112500X-0.200000X0*%
%TD*%
%TA.AperFunction,ComponentPad*%
%ADD27RoundRect,0.150000X0.150000X0.250000X-0.150000X0.250000X-0.150000X-0.250000X0.150000X-0.250000X0*%
%TD*%
%TA.AperFunction,ComponentPad*%
%ADD28R,1.350000X1.350000*%
%TD*%
%TA.AperFunction,SMDPad,CuDef*%
%ADD29RoundRect,0.147500X-0.172500X0.147500X-0.172500X-0.147500X0.172500X-0.147500X0.172500X0.147500X0*%
%TD*%
%TA.AperFunction,ComponentPad*%
%ADD30RoundRect,0.200000X0.450000X-0.200000X0.450000X0.200000X-0.450000X0.200000X-0.450000X-0.200000X0*%
%TD*%
%TA.AperFunction,ComponentPad*%
%ADD31O,1.300000X0.800000*%
%TD*%
%TA.AperFunction,SMDPad,CuDef*%
%ADD32RoundRect,0.200000X0.275000X-0.200000X0.275000X0.200000X-0.275000X0.200000X-0.275000X-0.200000X0*%
%TD*%
%TA.AperFunction,SMDPad,CuDef*%
%ADD33RoundRect,0.225000X0.225000X0.375000X-0.225000X0.375000X-0.225000X-0.375000X0.225000X-0.375000X0*%
%TD*%
%TA.AperFunction,SMDPad,CuDef*%
%ADD34RoundRect,0.140000X-0.140000X-0.170000X0.140000X-0.170000X0.140000X0.170000X-0.140000X0.170000X0*%
%TD*%
%TA.AperFunction,ComponentPad*%
%ADD35RoundRect,0.200000X-0.450000X0.200000X-0.450000X-0.200000X0.450000X-0.200000X0.450000X0.200000X0*%
%TD*%
%TA.AperFunction,ViaPad*%
%ADD36C,1.700000*%
%TD*%
%TA.AperFunction,ViaPad*%
%ADD37C,1.500000*%
%TD*%
%TA.AperFunction,ViaPad*%
%ADD38C,0.700000*%
%TD*%
%TA.AperFunction,ViaPad*%
%ADD39C,1.000000*%
%TD*%
%TA.AperFunction,ViaPad*%
%ADD40C,0.600000*%
%TD*%
%TA.AperFunction,ViaPad*%
%ADD41C,0.800000*%
%TD*%
%TA.AperFunction,ViaPad*%
%ADD42C,0.500000*%
%TD*%
%TA.AperFunction,ViaPad*%
%ADD43C,1.200000*%
%TD*%
%TA.AperFunction,ViaPad*%
%ADD44C,1.400000*%
%TD*%
%TA.AperFunction,Conductor*%
%ADD45C,0.300000*%
%TD*%
%TA.AperFunction,Conductor*%
%ADD46C,0.500000*%
%TD*%
%TA.AperFunction,Conductor*%
%ADD47C,1.000000*%
%TD*%
%TA.AperFunction,Conductor*%
%ADD48C,1.100000*%
%TD*%
%TA.AperFunction,Conductor*%
%ADD49C,0.400000*%
%TD*%
%TA.AperFunction,Conductor*%
%ADD50C,0.200000*%
%TD*%
%TA.AperFunction,Conductor*%
%ADD51C,1.200000*%
%TD*%
%TA.AperFunction,Conductor*%
%ADD52C,0.250000*%
%TD*%
%TA.AperFunction,Conductor*%
%ADD53C,0.152400*%
%TD*%
%TA.AperFunction,Conductor*%
%ADD54C,0.900000*%
%TD*%
G04 APERTURE END LIST*
D10*
X111790000Y-101190000D03*
X110830000Y-101190000D03*
X112880000Y-121940000D03*
X111920000Y-121940000D03*
D11*
X114497500Y-133790000D03*
X113682500Y-133790000D03*
D12*
X108900000Y-121500000D03*
X109715000Y-121500000D03*
D11*
X99410000Y-115480000D03*
X98595000Y-115480000D03*
D13*
X109340000Y-119470000D03*
X109340000Y-118655000D03*
D14*
X111900000Y-124600000D03*
X111900000Y-125100000D03*
X111900000Y-125600000D03*
X111900000Y-126100000D03*
X113380000Y-126100000D03*
X113380000Y-125600000D03*
X113380000Y-125100000D03*
X113380000Y-124600000D03*
D15*
X96275000Y-130285000D03*
X96275000Y-130935000D03*
X96275000Y-131585000D03*
X96275000Y-132235000D03*
X100485000Y-132235000D03*
X100485000Y-131585000D03*
X100485000Y-130935000D03*
X100485000Y-130285000D03*
D16*
X103720000Y-126080000D03*
X103720000Y-127040000D03*
D17*
X114090000Y-121940000D03*
X114090000Y-123590000D03*
D11*
X115205000Y-116030000D03*
X114390000Y-116030000D03*
D15*
X111895000Y-130395000D03*
X111895000Y-131045000D03*
X111895000Y-131695000D03*
X111895000Y-132345000D03*
X116105000Y-132345000D03*
X116105000Y-131695000D03*
X116105000Y-131045000D03*
X116105000Y-130395000D03*
D18*
X101640000Y-121750000D03*
X101640000Y-122565000D03*
D19*
X115180000Y-114780000D03*
X115180000Y-112580000D03*
X113480000Y-112580000D03*
X113480000Y-114780000D03*
D20*
X110585000Y-114725000D03*
X110585000Y-114225000D03*
X110585000Y-113725000D03*
X110585000Y-113225000D03*
X110585000Y-112725000D03*
X110585000Y-112225000D03*
X110585000Y-111725000D03*
X110585000Y-111225000D03*
X110585000Y-110725000D03*
X110585000Y-110225000D03*
X110585000Y-109725000D03*
X110585000Y-109225000D03*
X110585000Y-108725000D03*
X110585000Y-108225000D03*
X110585000Y-107725000D03*
X110585000Y-107225000D03*
D21*
X108660000Y-105300000D03*
X108160000Y-105300000D03*
X107660000Y-105300000D03*
X107160000Y-105300000D03*
X106660000Y-105300000D03*
X106160000Y-105300000D03*
X105660000Y-105300000D03*
X105160000Y-105300000D03*
X104660000Y-105300000D03*
X104160000Y-105300000D03*
X103660000Y-105300000D03*
X103160000Y-105300000D03*
X102660000Y-105300000D03*
X102160000Y-105300000D03*
X101660000Y-105300000D03*
X101160000Y-105300000D03*
D20*
X99235000Y-107225000D03*
X99235000Y-107725000D03*
X99235000Y-108225000D03*
X99235000Y-108725000D03*
X99235000Y-109225000D03*
X99235000Y-109725000D03*
X99235000Y-110225000D03*
X99235000Y-110725000D03*
X99235000Y-111225000D03*
X99235000Y-111725000D03*
X99235000Y-112225000D03*
X99235000Y-112725000D03*
X99235000Y-113225000D03*
X99235000Y-113725000D03*
X99235000Y-114225000D03*
X99235000Y-114725000D03*
D21*
X101160000Y-116650000D03*
X101660000Y-116650000D03*
X102160000Y-116650000D03*
X102660000Y-116650000D03*
X103160000Y-116650000D03*
X103660000Y-116650000D03*
X104160000Y-116650000D03*
X104660000Y-116650000D03*
X105160000Y-116650000D03*
X105660000Y-116650000D03*
X106160000Y-116650000D03*
X106660000Y-116650000D03*
X107160000Y-116650000D03*
X107660000Y-116650000D03*
X108160000Y-116650000D03*
X108660000Y-116650000D03*
D22*
X105480000Y-118250000D03*
X105480000Y-118900000D03*
X105480000Y-119550000D03*
X105480000Y-120200000D03*
X108580000Y-120200000D03*
X108580000Y-119550000D03*
X108580000Y-118900000D03*
X108580000Y-118250000D03*
D23*
X107030000Y-119225000D03*
D24*
X110010000Y-99800000D03*
X111910000Y-99800000D03*
X110960000Y-97925000D03*
D12*
X102835000Y-134360000D03*
X103650000Y-134360000D03*
D25*
X117325000Y-132370000D03*
X117325000Y-131410000D03*
D12*
X106700000Y-134370000D03*
X107515000Y-134370000D03*
X114050000Y-109060000D03*
X114865000Y-109060000D03*
D18*
X116580000Y-120502500D03*
X116580000Y-121317500D03*
D26*
X116870000Y-124497500D03*
X116220000Y-124497500D03*
X115570000Y-124497500D03*
X115570000Y-126422500D03*
X116220000Y-126422500D03*
X116845000Y-126422500D03*
D27*
X116720000Y-125460000D03*
X115720000Y-125460000D03*
D10*
X99440000Y-116300000D03*
X98480000Y-116300000D03*
D16*
X113210000Y-108170000D03*
X113210000Y-109130000D03*
D26*
X101880000Y-125607500D03*
X101230000Y-125607500D03*
X100580000Y-125607500D03*
X100580000Y-127532500D03*
X101230000Y-127532500D03*
X101855000Y-127532500D03*
D27*
X101730000Y-126570000D03*
X100730000Y-126570000D03*
D14*
X104830000Y-124640000D03*
X104830000Y-125140000D03*
X104830000Y-125640000D03*
X104830000Y-126140000D03*
X106310000Y-126140000D03*
X106310000Y-125640000D03*
X106310000Y-125140000D03*
X106310000Y-124640000D03*
D18*
X105080000Y-101250000D03*
X105080000Y-102065000D03*
D11*
X108347500Y-135110000D03*
X107532500Y-135110000D03*
D12*
X113872500Y-111360000D03*
X114687500Y-111360000D03*
D13*
X97930000Y-124685000D03*
X97930000Y-123870000D03*
D10*
X96900000Y-127210000D03*
X95940000Y-127210000D03*
D16*
X101690000Y-102890000D03*
X101690000Y-103850000D03*
D18*
X113880000Y-102990000D03*
X113880000Y-103805000D03*
D15*
X104060000Y-130400000D03*
X104060000Y-131050000D03*
X104060000Y-131700000D03*
X104060000Y-132350000D03*
X108270000Y-132350000D03*
X108270000Y-131700000D03*
X108270000Y-131050000D03*
X108270000Y-130400000D03*
D12*
X111925000Y-133790000D03*
X112740000Y-133790000D03*
D17*
X99940000Y-121995000D03*
X99940000Y-123645000D03*
D12*
X110592500Y-115450000D03*
X111407500Y-115450000D03*
D26*
X109910000Y-124457500D03*
X109260000Y-124457500D03*
X108610000Y-124457500D03*
X108610000Y-126382500D03*
X109260000Y-126382500D03*
X109885000Y-126382500D03*
D27*
X109760000Y-125420000D03*
X108760000Y-125420000D03*
D10*
X110490000Y-104600000D03*
X109530000Y-104600000D03*
D25*
X101650000Y-132200000D03*
X101650000Y-131240000D03*
D14*
X97890000Y-125470000D03*
X97890000Y-125970000D03*
X97890000Y-126470000D03*
X97890000Y-126970000D03*
X99370000Y-126970000D03*
X99370000Y-126470000D03*
X99370000Y-125970000D03*
X99370000Y-125470000D03*
D11*
X110355000Y-105430000D03*
X109540000Y-105430000D03*
D28*
X110000000Y-137500000D03*
D29*
X104350000Y-102945000D03*
X104350000Y-103915000D03*
D12*
X100045000Y-120840000D03*
X100860000Y-120840000D03*
X102850000Y-135100000D03*
X103665000Y-135100000D03*
D18*
X109380000Y-116882500D03*
X109380000Y-117697500D03*
D11*
X104215000Y-102120000D03*
X103400000Y-102120000D03*
X115935000Y-109770000D03*
X115120000Y-109770000D03*
D16*
X97930000Y-121940000D03*
X97930000Y-122900000D03*
D28*
X107500000Y-137500000D03*
D13*
X112340000Y-112205000D03*
X112340000Y-111390000D03*
D30*
X96750000Y-115980000D03*
D31*
X96750000Y-114730000D03*
X96750000Y-113480000D03*
D32*
X107640000Y-124460000D03*
X107640000Y-122810000D03*
D11*
X100605000Y-104720000D03*
X99790000Y-104720000D03*
D25*
X109410000Y-132330000D03*
X109410000Y-131370000D03*
D33*
X109670000Y-102090000D03*
X106370000Y-102090000D03*
D11*
X116545000Y-122160000D03*
X115730000Y-122160000D03*
D25*
X106120000Y-122760000D03*
X106120000Y-121800000D03*
D29*
X103370000Y-102910000D03*
X103370000Y-103880000D03*
D12*
X107470000Y-103740000D03*
X108285000Y-103740000D03*
D13*
X111920000Y-123750000D03*
X111920000Y-122935000D03*
D16*
X108840000Y-97670000D03*
X108840000Y-98630000D03*
D13*
X105180000Y-122665000D03*
X105180000Y-121850000D03*
D34*
X111790000Y-126970000D03*
X112750000Y-126970000D03*
D28*
X105000000Y-137500000D03*
D18*
X109910000Y-122325000D03*
X109910000Y-123140000D03*
X112390000Y-108202500D03*
X112390000Y-109017500D03*
D11*
X110357500Y-103780000D03*
X109542500Y-103780000D03*
D35*
X99780000Y-98860000D03*
D31*
X99780000Y-100110000D03*
X99780000Y-101360000D03*
X99780000Y-102610000D03*
X99780000Y-103860000D03*
D30*
X103010000Y-101200000D03*
D31*
X103010000Y-99950000D03*
X103010000Y-98700000D03*
D36*
X102860000Y-121820000D03*
D37*
X107050000Y-129472600D03*
D38*
X109845200Y-130550000D03*
D39*
X106460000Y-107850000D03*
D38*
X102330000Y-130400000D03*
D37*
X114100000Y-129472600D03*
D40*
X112020000Y-116550000D03*
D36*
X107620000Y-111140000D03*
D38*
X117190000Y-134050000D03*
D39*
X106730000Y-102280000D03*
D38*
X103730000Y-127017800D03*
D40*
X114690000Y-111363200D03*
X114370000Y-116050000D03*
X98540000Y-115327400D03*
D38*
X109500000Y-117830000D03*
D37*
X114644719Y-126215401D03*
D38*
X117320000Y-132410000D03*
D36*
X95070000Y-121330000D03*
D40*
X101260000Y-102880000D03*
D38*
X109200000Y-133912400D03*
D37*
X107640000Y-126187600D03*
D38*
X109410000Y-132330000D03*
D40*
X107010000Y-121542400D03*
D38*
X104300000Y-99270000D03*
D40*
X112340000Y-112210000D03*
D38*
X112302400Y-129124983D03*
X101650000Y-132200000D03*
D36*
X103400000Y-113000000D03*
D41*
X95120000Y-129340000D03*
D40*
X97684400Y-120970000D03*
D41*
X103710000Y-129322600D03*
D40*
X99370000Y-116710000D03*
X107030000Y-119225000D03*
D38*
X112750000Y-126940000D03*
X109671801Y-102037600D03*
D40*
X113852400Y-103850000D03*
X116105000Y-130382598D03*
X107434291Y-130611936D03*
D38*
X99637005Y-130425000D03*
D40*
X112694899Y-133736443D03*
X115360000Y-118794900D03*
X116089600Y-119120000D03*
X111438683Y-134621317D03*
X105370000Y-135600000D03*
X116640200Y-119710779D03*
X103650000Y-134414800D03*
X111430000Y-135440000D03*
D42*
X100495572Y-114097600D03*
D40*
X105560000Y-102890000D03*
D41*
X101770000Y-100090000D03*
D42*
X101921607Y-113999840D03*
D40*
X109120000Y-119580000D03*
X109200000Y-114194900D03*
X104890000Y-113020000D03*
X105065200Y-112192400D03*
X104180000Y-108460000D03*
X108670000Y-118900000D03*
X109357603Y-113308944D03*
X102282400Y-111000000D03*
X116945000Y-110404800D03*
D38*
X116659212Y-108647600D03*
D42*
X110390000Y-120820000D03*
D38*
X113972601Y-107058600D03*
D40*
X101561791Y-121715604D03*
X112570000Y-136120000D03*
D38*
X117347600Y-108144899D03*
D40*
X106010000Y-136386024D03*
X116120000Y-132510000D03*
X114798750Y-133558750D03*
X108280000Y-132557600D03*
X108460000Y-134960000D03*
X100907179Y-132503424D03*
X102870000Y-134414800D03*
X102570000Y-107720000D03*
X107120000Y-112550000D03*
X100620000Y-107720000D03*
X111090000Y-117990000D03*
X105070000Y-108380000D03*
X105040000Y-111110000D03*
X110591400Y-119648600D03*
X107589200Y-115060000D03*
X97907068Y-107756185D03*
X101730000Y-119440000D03*
X95632000Y-112440000D03*
X100310070Y-117927625D03*
X104250200Y-120016588D03*
X97970000Y-111696400D03*
X104680000Y-118240000D03*
X97760000Y-112753600D03*
X97630000Y-110777400D03*
X97730606Y-108487600D03*
D38*
X107290000Y-106700000D03*
X107650000Y-102780000D03*
D40*
X112730000Y-130540000D03*
D43*
X112872400Y-123145012D03*
X107670416Y-122779584D03*
D40*
X104680000Y-130410000D03*
X104766515Y-127017800D03*
X106484475Y-123653847D03*
D44*
X99930000Y-123520000D03*
D38*
X97553360Y-128200000D03*
X95840000Y-130030000D03*
D40*
X96870700Y-107852399D03*
X95413500Y-107880000D03*
X98090000Y-105460000D03*
X98252399Y-106704529D03*
X98690000Y-106060000D03*
X116180000Y-123800000D03*
X114660000Y-124548004D03*
X106640000Y-124390000D03*
X109280000Y-123870000D03*
X99508160Y-127250000D03*
X101210000Y-128240000D03*
X99508160Y-125180000D03*
X101230000Y-124830000D03*
X104810000Y-115400000D03*
X105480000Y-118250000D03*
X105580000Y-115060000D03*
X105480000Y-120200000D03*
D38*
X102547600Y-102754800D03*
D41*
X94634102Y-105347601D03*
X109040000Y-97570000D03*
D38*
X96272400Y-120240000D03*
X98547396Y-120034996D03*
D40*
X112632972Y-105482972D03*
X111299958Y-105298716D03*
D45*
X101855000Y-126695000D02*
X101730000Y-126570000D01*
X115967400Y-109802400D02*
X117228101Y-109802400D01*
D46*
X110020000Y-127000000D02*
X110020000Y-128020200D01*
D47*
X102757400Y-126332600D02*
X102200000Y-126890000D01*
X109020000Y-128020200D02*
X116469800Y-128020200D01*
D46*
X109760000Y-125420000D02*
X110020000Y-125680000D01*
X110020000Y-127000000D02*
X110020000Y-127020200D01*
D47*
X102200000Y-127580000D02*
X102640200Y-128020200D01*
D45*
X117547400Y-110121699D02*
X117547400Y-124932598D01*
D48*
X116960000Y-127530000D02*
X117147400Y-127342600D01*
D46*
X110020000Y-127020200D02*
X109020000Y-128020200D01*
D47*
X102640200Y-128020200D02*
X103340000Y-128020200D01*
X102560000Y-123820000D02*
X102757400Y-124017400D01*
D46*
X110020000Y-125680000D02*
X110020000Y-127000000D01*
D48*
X116469800Y-128020200D02*
X116960000Y-127530000D01*
D47*
X102757400Y-124017400D02*
X102757400Y-126332600D01*
X102200000Y-126890000D02*
X102200000Y-127580000D01*
D48*
X117147400Y-127342600D02*
X117147400Y-125647400D01*
D47*
X102670000Y-126420000D02*
X102200000Y-126890000D01*
X103340000Y-128020200D02*
X109020000Y-128020200D01*
D45*
X117547400Y-124932598D02*
X117209999Y-125269999D01*
X101855000Y-127532500D02*
X101855000Y-126695000D01*
D48*
X117147400Y-125647400D02*
X117130000Y-125630000D01*
D45*
X117228101Y-109802400D02*
X117547400Y-110121699D01*
X115935000Y-109770000D02*
X115967400Y-109802400D01*
X117019999Y-125460000D02*
X116720000Y-125460000D01*
X117209999Y-125269999D02*
X117019999Y-125460000D01*
D48*
X102860000Y-121820000D02*
X102560000Y-122120000D01*
X102560000Y-122120000D02*
X102560000Y-123820000D01*
D45*
X108580000Y-118250000D02*
X108827500Y-118250000D01*
X103220000Y-131220000D02*
X103220000Y-131440000D01*
D49*
X108840000Y-98630000D02*
X108490000Y-98630000D01*
D50*
X108160000Y-116650000D02*
X108160000Y-118095000D01*
D45*
X104650000Y-134272400D02*
X104140000Y-133762400D01*
D51*
X107090000Y-129432600D02*
X107050000Y-129472600D01*
D49*
X102310000Y-133240000D02*
X102832400Y-133762400D01*
D45*
X102850000Y-135330000D02*
X103280000Y-135760000D01*
D52*
X108285000Y-103740000D02*
X108160000Y-103865000D01*
D45*
X100127600Y-126842846D02*
X100127600Y-127287600D01*
D49*
X111084012Y-133762400D02*
X111086412Y-133760000D01*
D50*
X106660000Y-116650000D02*
X106660000Y-118855000D01*
D49*
X104140000Y-133762400D02*
X106550000Y-133762400D01*
D53*
X105080000Y-101250000D02*
X105530000Y-101250000D01*
D45*
X103480000Y-131700000D02*
X103220000Y-131440000D01*
D49*
X111960000Y-105640000D02*
X111960000Y-103030000D01*
X110830000Y-101900000D02*
X110830000Y-101190000D01*
X102400000Y-130400000D02*
X102330000Y-130400000D01*
X96275000Y-131585000D02*
X95385000Y-131585000D01*
D45*
X100127600Y-127287600D02*
X100372500Y-127532500D01*
D49*
X104300000Y-99270000D02*
X106190000Y-97380000D01*
D50*
X114687500Y-111360700D02*
X114690000Y-111363200D01*
D45*
X108005000Y-118250000D02*
X107030000Y-119225000D01*
X109380000Y-117710000D02*
X109500000Y-117830000D01*
D49*
X116690000Y-134550000D02*
X117190000Y-134050000D01*
X96275000Y-130935000D02*
X95365000Y-130935000D01*
D45*
X114029318Y-125600000D02*
X114644719Y-126215401D01*
D51*
X96030000Y-128430000D02*
X96420000Y-128820000D01*
D52*
X107620000Y-107410000D02*
X107620000Y-108480000D01*
D46*
X109410000Y-132376317D02*
X109407600Y-132378717D01*
D52*
X98740000Y-100460000D02*
X99090000Y-100110000D01*
X111782500Y-109017500D02*
X111575000Y-109225000D01*
D49*
X112750000Y-126970000D02*
X112750000Y-126940000D01*
D45*
X104650000Y-135180000D02*
X104650000Y-134272400D01*
X104070000Y-135760000D02*
X104650000Y-135180000D01*
D49*
X110830000Y-101190000D02*
X110830000Y-100620000D01*
X97814400Y-120840000D02*
X97684400Y-120970000D01*
D45*
X106705000Y-118900000D02*
X107030000Y-119225000D01*
D52*
X108595000Y-109225000D02*
X107620000Y-110200000D01*
D45*
X111407500Y-115450000D02*
X111407500Y-115937500D01*
X106700000Y-134370000D02*
X106700000Y-133912400D01*
X115570000Y-126422500D02*
X114851818Y-126422500D01*
D49*
X101650000Y-132200000D02*
X101650000Y-132890000D01*
X95050000Y-131250000D02*
X95050000Y-129410000D01*
D51*
X103710000Y-129322600D02*
X99750000Y-129322600D01*
D46*
X106540000Y-102090000D02*
X106730000Y-102280000D01*
D52*
X98740000Y-104027988D02*
X98740000Y-100460000D01*
X99432012Y-104720000D02*
X98740000Y-104027988D01*
D49*
X103220000Y-131220000D02*
X102400000Y-130400000D01*
X98595000Y-115382400D02*
X98540000Y-115327400D01*
X103720000Y-127027800D02*
X103730000Y-127017800D01*
D51*
X106090000Y-109610000D02*
X107620000Y-111140000D01*
D45*
X114040000Y-109062500D02*
X112435000Y-109062500D01*
X107052400Y-121500000D02*
X107010000Y-121542400D01*
X103480000Y-131700000D02*
X104060000Y-131700000D01*
X103390000Y-131050000D02*
X104060000Y-131050000D01*
D49*
X100045000Y-120840000D02*
X97814400Y-120840000D01*
X95050000Y-129410000D02*
X95120000Y-129340000D01*
D53*
X104190000Y-101690000D02*
X104670000Y-101210000D01*
D49*
X106550000Y-133762400D02*
X111084012Y-133762400D01*
D45*
X108580000Y-118250000D02*
X108005000Y-118250000D01*
X103280000Y-135760000D02*
X104070000Y-135760000D01*
D46*
X109410000Y-132330000D02*
X109410000Y-132376317D01*
D45*
X114851818Y-126422500D02*
X114644719Y-126215401D01*
X112435000Y-109062500D02*
X112390000Y-109017500D01*
X111895000Y-131695000D02*
X111205000Y-131695000D01*
X106310000Y-125640000D02*
X107092400Y-125640000D01*
D51*
X106900000Y-129322600D02*
X103710000Y-129322600D01*
D45*
X112020000Y-116570000D02*
X112020000Y-116550000D01*
D49*
X108490000Y-98630000D02*
X107240000Y-97380000D01*
D51*
X96030000Y-128430000D02*
X96922600Y-129322600D01*
D49*
X111086412Y-133760000D02*
X111500000Y-133760000D01*
X110830000Y-100620000D02*
X110010000Y-99800000D01*
D45*
X111265000Y-131045000D02*
X110910000Y-131400000D01*
D50*
X106660000Y-118855000D02*
X107030000Y-119225000D01*
D45*
X116580000Y-120502500D02*
X115952500Y-120502500D01*
D49*
X110010000Y-98960000D02*
X110010000Y-99800000D01*
X101650000Y-132890000D02*
X101300000Y-133240000D01*
X111500000Y-133760000D02*
X112290000Y-134550000D01*
X98595000Y-115480000D02*
X98595000Y-115382400D01*
X110380000Y-130550000D02*
X110910000Y-131080000D01*
X96000000Y-133240000D02*
X101300000Y-133240000D01*
D53*
X104670000Y-101210000D02*
X105040000Y-101210000D01*
D49*
X95050000Y-131250000D02*
X95050000Y-132290000D01*
D50*
X99440000Y-116640000D02*
X99370000Y-116710000D01*
D51*
X103400000Y-110770000D02*
X104560000Y-109610000D01*
D45*
X102850000Y-135100000D02*
X102850000Y-135330000D01*
D49*
X101300000Y-133240000D02*
X102310000Y-133240000D01*
X112290000Y-134550000D02*
X116690000Y-134550000D01*
X95365000Y-130935000D02*
X95050000Y-131250000D01*
D52*
X110585000Y-109225000D02*
X111575000Y-109225000D01*
D45*
X109380000Y-117697500D02*
X109380000Y-117710000D01*
D51*
X112660000Y-129432600D02*
X107090000Y-129432600D01*
D49*
X107620000Y-108480000D02*
X109480000Y-106620000D01*
D51*
X99750000Y-129322600D02*
X99120000Y-129322600D01*
D50*
X114390000Y-116030000D02*
X114370000Y-116050000D01*
X114687500Y-111360000D02*
X114687500Y-111360700D01*
D53*
X105530000Y-101250000D02*
X106370000Y-102090000D01*
D45*
X99370000Y-126470000D02*
X99754754Y-126470000D01*
D49*
X95050000Y-132290000D02*
X96000000Y-133240000D01*
X109480000Y-106620000D02*
X110980000Y-106620000D01*
D51*
X95615000Y-128015000D02*
X96030000Y-128430000D01*
X96922600Y-129322600D02*
X99120000Y-129322600D01*
D45*
X111407500Y-115937500D02*
X112020000Y-116550000D01*
D49*
X117325000Y-132405000D02*
X117320000Y-132410000D01*
D45*
X100372500Y-127532500D02*
X100580000Y-127532500D01*
D52*
X108160000Y-103865000D02*
X108160000Y-105300000D01*
D51*
X107050000Y-129472600D02*
X106900000Y-129322600D01*
D52*
X99790000Y-104720000D02*
X99432012Y-104720000D01*
X108160000Y-106870000D02*
X107620000Y-107410000D01*
D45*
X110910000Y-131400000D02*
X110910000Y-131080000D01*
D49*
X107620000Y-111140000D02*
X107620000Y-110200000D01*
D52*
X110355000Y-105745000D02*
X109480000Y-106620000D01*
D51*
X95615000Y-128015000D02*
X95070000Y-127470000D01*
D52*
X99090000Y-100110000D02*
X99780000Y-100110000D01*
D45*
X113380000Y-125600000D02*
X114029318Y-125600000D01*
D49*
X95385000Y-131585000D02*
X95050000Y-131250000D01*
D52*
X110355000Y-105430000D02*
X110355000Y-105745000D01*
D45*
X103220000Y-131220000D02*
X103390000Y-131050000D01*
D46*
X106990000Y-107850000D02*
X107620000Y-108480000D01*
D52*
X110585000Y-109225000D02*
X108595000Y-109225000D01*
D51*
X104560000Y-109610000D02*
X106090000Y-109610000D01*
D45*
X111895000Y-131045000D02*
X111265000Y-131045000D01*
D49*
X109845200Y-130550000D02*
X110380000Y-130550000D01*
D47*
X99120000Y-129322600D02*
X99187400Y-129322600D01*
D49*
X103720000Y-127040000D02*
X103720000Y-127027800D01*
D52*
X108160000Y-105300000D02*
X108160000Y-106870000D01*
D49*
X110980000Y-106620000D02*
X111960000Y-105640000D01*
D50*
X108160000Y-118095000D02*
X107030000Y-119225000D01*
D49*
X108840000Y-98630000D02*
X109680000Y-98630000D01*
D50*
X100580000Y-128492600D02*
X99750000Y-129322600D01*
D45*
X108827500Y-118250000D02*
X109380000Y-117697500D01*
D52*
X112390000Y-109017500D02*
X111782500Y-109017500D01*
D51*
X103400000Y-113000000D02*
X103400000Y-110770000D01*
D52*
X110490000Y-105295000D02*
X110355000Y-105430000D01*
X110490000Y-104600000D02*
X110490000Y-105295000D01*
D50*
X100580000Y-127532500D02*
X100580000Y-128492600D01*
D46*
X106370000Y-102090000D02*
X106540000Y-102090000D01*
D45*
X115952500Y-120502500D02*
X112020000Y-116570000D01*
D53*
X105040000Y-101210000D02*
X105080000Y-101250000D01*
X104190000Y-102200000D02*
X104190000Y-101690000D01*
D45*
X111205000Y-131695000D02*
X110910000Y-131400000D01*
D51*
X114100000Y-129472600D02*
X114060000Y-129432600D01*
D45*
X108900000Y-121500000D02*
X107052400Y-121500000D01*
D51*
X114060000Y-129432600D02*
X112660000Y-129432600D01*
D49*
X111960000Y-103030000D02*
X110830000Y-101900000D01*
X102832400Y-133762400D02*
X104140000Y-133762400D01*
D45*
X106700000Y-133912400D02*
X106550000Y-133762400D01*
X107092400Y-125640000D02*
X107640000Y-126187600D01*
D50*
X99440000Y-116300000D02*
X99440000Y-116640000D01*
D45*
X105190000Y-118900000D02*
X105480000Y-118900000D01*
D49*
X106190000Y-97380000D02*
X107240000Y-97380000D01*
D51*
X95070000Y-127470000D02*
X95070000Y-121330000D01*
D50*
X108610000Y-126382500D02*
X107834900Y-126382500D01*
D46*
X106460000Y-107850000D02*
X106990000Y-107850000D01*
D49*
X107620000Y-110200000D02*
X107620000Y-108480000D01*
D45*
X99754754Y-126470000D02*
X100127600Y-126842846D01*
X105480000Y-118900000D02*
X106705000Y-118900000D01*
D47*
X99120000Y-129322600D02*
X99197400Y-129322600D01*
D49*
X109680000Y-98630000D02*
X110010000Y-98960000D01*
D50*
X107834900Y-126382500D02*
X107640000Y-126187600D01*
D51*
X107620000Y-111140000D02*
X107620000Y-108480000D01*
D50*
X101660000Y-105300000D02*
X101660000Y-103880000D01*
X101660000Y-103880000D02*
X101690000Y-103850000D01*
D53*
X98460001Y-114225000D02*
X98011400Y-114673601D01*
X98011400Y-115831400D02*
X98480000Y-116300000D01*
X99235000Y-114225000D02*
X98460001Y-114225000D01*
X98011400Y-114673601D02*
X98011400Y-115831400D01*
D50*
X110585000Y-111725000D02*
X111524310Y-111725000D01*
X111524310Y-111725000D02*
X111859310Y-111390000D01*
X111859310Y-111390000D02*
X112340000Y-111390000D01*
X114704999Y-116730000D02*
X115205000Y-116229999D01*
X115205000Y-116229999D02*
X115205000Y-116030000D01*
X111700000Y-112885000D02*
X111700000Y-114923860D01*
X115205000Y-115015000D02*
X115200000Y-115010000D01*
X115205000Y-114805000D02*
X115180000Y-114780000D01*
X111700000Y-114923860D02*
X113506140Y-116730000D01*
X115205000Y-116030000D02*
X115205000Y-114805000D01*
X114390000Y-116730000D02*
X114704999Y-116730000D01*
X113506140Y-116730000D02*
X114390000Y-116730000D01*
X110585000Y-112725000D02*
X111540000Y-112725000D01*
X111540000Y-112725000D02*
X111700000Y-112885000D01*
X110585000Y-112225000D02*
X111538368Y-112225000D01*
X113872500Y-111360000D02*
X113872500Y-112187500D01*
X111538368Y-112225000D02*
X112123368Y-112810000D01*
X113250000Y-112810000D02*
X113480000Y-112580000D01*
X113872500Y-112187500D02*
X113480000Y-112580000D01*
X112123368Y-112810000D02*
X113250000Y-112810000D01*
D52*
X108660000Y-105300000D02*
X108660000Y-104780000D01*
X109542500Y-103780000D02*
X109542500Y-105427500D01*
X108840000Y-104600000D02*
X109530000Y-104600000D01*
X108660000Y-104780000D02*
X108840000Y-104600000D01*
X109542500Y-105427500D02*
X109540000Y-105430000D01*
D53*
X105080000Y-102065000D02*
X105080000Y-102215000D01*
X105130000Y-102115000D02*
X105080000Y-102065000D01*
X105080000Y-102215000D02*
X104350000Y-102945000D01*
X103380000Y-102140000D02*
X103400000Y-102120000D01*
X103380000Y-103007500D02*
X103380000Y-102140000D01*
X103380000Y-102205000D02*
X103375000Y-102200000D01*
D45*
X111920000Y-122935000D02*
X111920000Y-121940000D01*
D52*
X105230000Y-121800000D02*
X105180000Y-121850000D01*
X106120000Y-121800000D02*
X105230000Y-121800000D01*
D45*
X97930000Y-123870000D02*
X97930000Y-122900000D01*
D49*
X116870000Y-123320000D02*
X116870000Y-124497500D01*
D54*
X114790000Y-121940000D02*
X115700000Y-122850000D01*
D49*
X116070000Y-122850000D02*
X116400000Y-122850000D01*
D45*
X115570000Y-123350000D02*
X115890000Y-123030000D01*
D49*
X115527600Y-124455100D02*
X115570000Y-124497500D01*
X115570000Y-123350000D02*
X116070000Y-122850000D01*
D52*
X113380000Y-125100000D02*
X113405404Y-125125404D01*
D49*
X116870000Y-123320000D02*
X116400000Y-122850000D01*
D45*
X115890000Y-123030000D02*
X116580000Y-123030000D01*
D52*
X115570000Y-125310000D02*
X115720000Y-125460000D01*
X115570000Y-124497500D02*
X115570000Y-125310000D01*
X114942096Y-125125404D02*
X115570000Y-124497500D01*
D49*
X116400000Y-122850000D02*
X115700000Y-122850000D01*
D45*
X112880000Y-121940000D02*
X114090000Y-121940000D01*
D49*
X115570000Y-123350000D02*
X115527600Y-123392400D01*
D45*
X116870000Y-123320000D02*
X116580000Y-123030000D01*
D54*
X114090000Y-121940000D02*
X114790000Y-121940000D01*
D49*
X115527600Y-123392400D02*
X115527600Y-124455100D01*
D52*
X113405404Y-125125404D02*
X114942096Y-125125404D01*
D45*
X109910000Y-123390000D02*
X109500000Y-122980000D01*
D52*
X106410000Y-122760000D02*
X106120000Y-122760000D01*
D46*
X108607500Y-124460000D02*
X108610000Y-124457500D01*
D45*
X109750000Y-122980000D02*
X109910000Y-123140000D01*
X108475200Y-125135200D02*
X108760000Y-125420000D01*
X106314800Y-125135200D02*
X108475200Y-125135200D01*
D52*
X107640000Y-123990000D02*
X106410000Y-122760000D01*
D45*
X108610000Y-124457500D02*
X108610000Y-125270000D01*
X106310000Y-125140000D02*
X106314800Y-125135200D01*
X107434291Y-130611936D02*
X107646227Y-130400000D01*
X109500000Y-122980000D02*
X109750000Y-122980000D01*
X108610000Y-125270000D02*
X108760000Y-125420000D01*
X108610000Y-123310000D02*
X108610000Y-124457500D01*
X109910000Y-124457500D02*
X109910000Y-123390000D01*
D46*
X107640000Y-124460000D02*
X108607500Y-124460000D01*
D45*
X108940000Y-122980000D02*
X108610000Y-123310000D01*
X109500000Y-122980000D02*
X108940000Y-122980000D01*
D52*
X107640000Y-124460000D02*
X107640000Y-123990000D01*
D45*
X107646227Y-130400000D02*
X108270000Y-130400000D01*
X101570000Y-124070000D02*
X101880000Y-124380000D01*
D54*
X101407600Y-122837600D02*
X101407600Y-123682400D01*
D45*
X99370000Y-125970000D02*
X100217500Y-125970000D01*
D54*
X100565000Y-121995000D02*
X101407600Y-122837600D01*
X99940000Y-121995000D02*
X100565000Y-121995000D01*
D45*
X100580000Y-125607500D02*
X100580000Y-124460000D01*
X100217500Y-125970000D02*
X100580000Y-125607500D01*
X100580000Y-125607500D02*
X100580000Y-126420000D01*
X99637005Y-130425000D02*
X99777005Y-130285000D01*
D54*
X101407600Y-123682400D02*
X101250000Y-123840000D01*
D45*
X100580000Y-124460000D02*
X100970000Y-124070000D01*
X99885000Y-121940000D02*
X99940000Y-121995000D01*
D54*
X101407600Y-122837600D02*
X101407600Y-122900000D01*
D45*
X101880000Y-124380000D02*
X101880000Y-125607500D01*
X97930000Y-121940000D02*
X99885000Y-121940000D01*
X100580000Y-126420000D02*
X100730000Y-126570000D01*
X99777005Y-130285000D02*
X100485000Y-130285000D01*
X100970000Y-124070000D02*
X101570000Y-124070000D01*
D53*
X115490000Y-118580000D02*
X115360000Y-118710000D01*
X111950000Y-110834600D02*
X113350000Y-110834600D01*
X115314600Y-110834600D02*
X116008600Y-111528600D01*
X110585000Y-111225000D02*
X111559600Y-111225000D01*
X116008600Y-118061400D02*
X115490000Y-118580000D01*
X111559600Y-111225000D02*
X111950000Y-110834600D01*
X113350000Y-110834600D02*
X115314600Y-110834600D01*
X116008600Y-111528600D02*
X116008600Y-118061400D01*
D45*
X112740000Y-133790000D02*
X112740000Y-133781544D01*
X113682500Y-133790000D02*
X112740000Y-133790000D01*
D53*
X115360000Y-118710000D02*
X115360000Y-118794900D01*
D45*
X112740000Y-133781544D02*
X112694899Y-133736443D01*
D53*
X116313400Y-119206600D02*
X116190000Y-119330000D01*
X111640200Y-110529800D02*
X115440852Y-110529800D01*
X110585000Y-110725000D02*
X111445000Y-110725000D01*
X110497283Y-134621317D02*
X109580000Y-135538600D01*
D45*
X107515000Y-134370000D02*
X107515000Y-135092500D01*
D53*
X111438683Y-134621317D02*
X110497283Y-134621317D01*
X116313400Y-118896200D02*
X116089600Y-119120000D01*
X116313400Y-111402348D02*
X116313400Y-118896200D01*
D45*
X107515000Y-135092500D02*
X107532500Y-135110000D01*
D53*
X107961100Y-135538600D02*
X107532500Y-135110000D01*
X115440852Y-110529800D02*
X116313400Y-111402348D01*
X116176200Y-119206600D02*
X116089600Y-119120000D01*
X109580000Y-135538600D02*
X107961100Y-135538600D01*
X111445000Y-110725000D02*
X111640200Y-110529800D01*
X116416400Y-111026400D02*
X116618200Y-111228200D01*
X116618200Y-119230000D02*
X116618200Y-119688779D01*
X106481530Y-136110000D02*
X105971530Y-135600000D01*
X116618200Y-119688779D02*
X116640200Y-119710779D01*
X116618200Y-111228200D02*
X116618200Y-119230000D01*
X115615000Y-110225000D02*
X116416400Y-111026400D01*
X115315000Y-110225000D02*
X115615000Y-110225000D01*
X110760000Y-136110000D02*
X106481530Y-136110000D01*
D45*
X103650000Y-134360000D02*
X103650000Y-135085000D01*
D53*
X105971530Y-135600000D02*
X105370000Y-135600000D01*
D45*
X103650000Y-135085000D02*
X103665000Y-135100000D01*
D53*
X111430000Y-135440000D02*
X110760000Y-136110000D01*
X110585000Y-110225000D02*
X115315000Y-110225000D01*
D45*
X108892500Y-116882500D02*
X108660000Y-116650000D01*
D46*
X102290000Y-114315000D02*
X103856162Y-114315000D01*
X100090000Y-106070000D02*
X100850000Y-106830000D01*
X101580000Y-113605000D02*
X102290000Y-114315000D01*
X99370000Y-97560000D02*
X101100000Y-97560000D01*
X101580000Y-107590000D02*
X101580000Y-113605000D01*
X99490000Y-105470000D02*
X100090000Y-106070000D01*
D45*
X110592500Y-114732500D02*
X110585000Y-114725000D01*
D52*
X106410000Y-103740000D02*
X105560000Y-102890000D01*
D45*
X100280000Y-105470000D02*
X99490000Y-105470000D01*
D52*
X101160000Y-105300000D02*
X101160000Y-104840000D01*
X101040000Y-104720000D02*
X100605000Y-104720000D01*
D45*
X110592500Y-115450000D02*
X109440000Y-115450000D01*
D52*
X101160000Y-104840000D02*
X101040000Y-104720000D01*
D46*
X99490000Y-105470000D02*
X99110000Y-105470000D01*
D45*
X100605000Y-105110000D02*
X100605000Y-105145000D01*
X108580000Y-120200000D02*
X109499350Y-120200000D01*
X109380000Y-115390000D02*
X109300000Y-115310000D01*
X109440000Y-115450000D02*
X109300000Y-115310000D01*
D46*
X98212600Y-98717400D02*
X99370000Y-97560000D01*
D52*
X107470000Y-103740000D02*
X106410000Y-103740000D01*
D46*
X104310000Y-113870000D02*
X107860000Y-113870000D01*
D45*
X110592500Y-115450000D02*
X110592500Y-114732500D01*
X109499350Y-120200000D02*
X109842400Y-119856950D01*
D46*
X100850000Y-106830000D02*
X100850000Y-106860000D01*
X98212600Y-104572600D02*
X98212600Y-98717400D01*
D45*
X109842400Y-118500000D02*
X110152400Y-118190000D01*
D46*
X99110000Y-105470000D02*
X98212600Y-104572600D01*
X107860000Y-113870000D02*
X109300000Y-115310000D01*
X100850000Y-106860000D02*
X101580000Y-107590000D01*
X101100000Y-97560000D02*
X101770000Y-98230000D01*
D52*
X100495572Y-115004428D02*
X100020000Y-115480000D01*
D46*
X104305581Y-113865581D02*
X104310000Y-113870000D01*
D45*
X109380000Y-116882500D02*
X109380000Y-115390000D01*
D46*
X101770000Y-98230000D02*
X101770000Y-100090000D01*
D52*
X100495572Y-114097600D02*
X100495572Y-115004428D01*
D45*
X100605000Y-105145000D02*
X100280000Y-105470000D01*
D52*
X100020000Y-115480000D02*
X99410000Y-115480000D01*
D45*
X110152400Y-116162400D02*
X109300000Y-115310000D01*
D52*
X107660000Y-105300000D02*
X107660000Y-103930000D01*
D45*
X109380000Y-116882500D02*
X108892500Y-116882500D01*
D52*
X107660000Y-103930000D02*
X107470000Y-103740000D01*
X101160000Y-104840000D02*
X101020000Y-104700000D01*
D45*
X109842400Y-119856950D02*
X109842400Y-118500000D01*
D46*
X103856162Y-114315000D02*
X104305581Y-113865581D01*
D45*
X110152400Y-118190000D02*
X110152400Y-116162400D01*
X99410000Y-115480000D02*
X99410000Y-114900000D01*
X99410000Y-114900000D02*
X99235000Y-114725000D01*
X100605000Y-105110000D02*
X100605000Y-104720000D01*
X115120000Y-109550000D02*
X115120000Y-109770000D01*
X114865000Y-109060000D02*
X115110000Y-109305000D01*
D50*
X110585000Y-109725000D02*
X115075000Y-109725000D01*
D45*
X115110000Y-109540000D02*
X115120000Y-109550000D01*
X115110000Y-109305000D02*
X115110000Y-109540000D01*
D50*
X115075000Y-109725000D02*
X115120000Y-109770000D01*
D53*
X109200000Y-114194900D02*
X108395100Y-113390000D01*
X108660000Y-119470000D02*
X108580000Y-119550000D01*
X108395100Y-113390000D02*
X105260000Y-113390000D01*
X109090000Y-119550000D02*
X109120000Y-119580000D01*
X109340000Y-119470000D02*
X108660000Y-119470000D01*
X105260000Y-113390000D02*
X104890000Y-113020000D01*
X108580000Y-119550000D02*
X109090000Y-119550000D01*
X102330000Y-110952400D02*
X102282400Y-111000000D01*
X104180000Y-108460000D02*
X103590000Y-108460000D01*
X103590000Y-108460000D02*
X102330000Y-109720000D01*
X108915000Y-118655000D02*
X108670000Y-118900000D01*
X109340000Y-118655000D02*
X108915000Y-118655000D01*
X105958000Y-113085200D02*
X105065200Y-112192400D01*
X109357603Y-113308944D02*
X109133859Y-113085200D01*
X102330000Y-109720000D02*
X102330000Y-110952400D01*
X109133859Y-113085200D02*
X105958000Y-113085200D01*
D50*
X108580000Y-118900000D02*
X108670000Y-118900000D01*
D53*
X115648812Y-107637200D02*
X111952800Y-107637200D01*
X116580000Y-121317500D02*
X117008600Y-120888900D01*
X111952800Y-107637200D02*
X111365000Y-108225000D01*
X117168800Y-120741200D02*
X117168800Y-110628600D01*
X117168800Y-110628600D02*
X116945000Y-110404800D01*
X116659212Y-108647600D02*
X115648812Y-107637200D01*
D45*
X116580000Y-122125000D02*
X116545000Y-122160000D01*
X116580000Y-121317500D02*
X116580000Y-122125000D01*
D53*
X117008600Y-120888900D02*
X117021100Y-120888900D01*
X111365000Y-108225000D02*
X110585000Y-108225000D01*
X117021100Y-120888900D02*
X117168800Y-120741200D01*
D45*
X109910000Y-121695000D02*
X109715000Y-121500000D01*
D50*
X109715000Y-121495000D02*
X110390000Y-120820000D01*
D45*
X109910000Y-122325000D02*
X109910000Y-121695000D01*
D50*
X109715000Y-121500000D02*
X109715000Y-121495000D01*
D53*
X113972601Y-107058600D02*
X112091400Y-107058600D01*
X112091400Y-107058600D02*
X111425000Y-107725000D01*
X111425000Y-107725000D02*
X110585000Y-107725000D01*
D45*
X101640000Y-121750000D02*
X101596187Y-121750000D01*
D53*
X116201351Y-106998649D02*
X117347600Y-108144899D01*
X111235000Y-107225000D02*
X111980000Y-106480000D01*
D45*
X101596187Y-121750000D02*
X101561791Y-121715604D01*
D53*
X106180000Y-136556024D02*
X106010000Y-136386024D01*
X112570000Y-136120000D02*
X112570000Y-136140000D01*
X115682702Y-106480000D02*
X116201351Y-106998649D01*
X110585000Y-107225000D02*
X111235000Y-107225000D01*
X106180000Y-136596400D02*
X106180000Y-136556024D01*
X111980000Y-106480000D02*
X115682702Y-106480000D01*
D45*
X100995000Y-121105000D02*
X101640000Y-121750000D01*
D53*
X112570000Y-136140000D02*
X112113600Y-136596400D01*
X112113600Y-136596400D02*
X106180000Y-136596400D01*
D45*
X100995000Y-120760000D02*
X100995000Y-121105000D01*
X116105000Y-132495000D02*
X116120000Y-132510000D01*
X114798750Y-133558750D02*
X114728750Y-133558750D01*
X114728750Y-133558750D02*
X114497500Y-133790000D01*
X116105000Y-132345000D02*
X116105000Y-132495000D01*
X108347500Y-135110000D02*
X108347500Y-135072500D01*
X108280000Y-132557600D02*
X108280000Y-132360000D01*
X108280000Y-132360000D02*
X108270000Y-132350000D01*
X108347500Y-135072500D02*
X108460000Y-134960000D01*
X102835000Y-134379800D02*
X102870000Y-134414800D01*
X100753424Y-132503424D02*
X100485000Y-132235000D01*
X102835000Y-134360000D02*
X102835000Y-134379800D01*
X100907179Y-132503424D02*
X100753424Y-132503424D01*
D53*
X107120000Y-112550000D02*
X106480000Y-112550000D01*
X111025200Y-121528748D02*
X112555200Y-119998748D01*
X112555200Y-119998748D02*
X112555200Y-118935200D01*
X105070000Y-108380000D02*
X104410000Y-107720000D01*
X111610000Y-117990000D02*
X111090000Y-117990000D01*
X111565000Y-125600000D02*
X111025200Y-125060200D01*
X106480000Y-112550000D02*
X105040000Y-111110000D01*
X104410000Y-107720000D02*
X102570000Y-107720000D01*
X111900000Y-125600000D02*
X111565000Y-125600000D01*
X100620000Y-107720000D02*
X99240000Y-107720000D01*
X111025200Y-125060200D02*
X111025200Y-121528748D01*
X112555200Y-118935200D02*
X111610000Y-117990000D01*
X99240000Y-107720000D02*
X99235000Y-107725000D01*
X112090000Y-117290000D02*
X110980000Y-117290000D01*
X104230000Y-115060000D02*
X102080000Y-115060000D01*
X110531000Y-117739000D02*
X110531000Y-119588200D01*
X111900000Y-125100000D02*
X111565000Y-125100000D01*
X110980000Y-117290000D02*
X110531000Y-117739000D01*
X110531000Y-119588200D02*
X110591400Y-119648600D01*
X104758600Y-114531400D02*
X104230000Y-115060000D01*
X100215000Y-111225000D02*
X99235000Y-111225000D01*
X102080000Y-115060000D02*
X100940000Y-113920000D01*
X111330000Y-124865000D02*
X111330000Y-121655000D01*
X100940000Y-113920000D02*
X100940000Y-111950000D01*
X112860000Y-118060000D02*
X112090000Y-117290000D01*
X111330000Y-121655000D02*
X112860000Y-120125000D01*
X107060600Y-114531400D02*
X104758600Y-114531400D01*
X112860000Y-120125000D02*
X112860000Y-118060000D01*
X100940000Y-111950000D02*
X100215000Y-111225000D01*
X107589200Y-115060000D02*
X107060600Y-114531400D01*
X111565000Y-125100000D02*
X111330000Y-124865000D01*
X104391000Y-123139000D02*
X104391000Y-121185838D01*
X104169221Y-120964060D02*
X103700000Y-120494839D01*
X104495000Y-125640000D02*
X103961600Y-125106600D01*
X103700000Y-120494839D02*
X103700000Y-120479068D01*
X102660932Y-119440000D02*
X101730000Y-119440000D01*
X103700000Y-120479068D02*
X102660932Y-119440000D01*
X103961600Y-125106600D02*
X103961600Y-123568400D01*
X96227625Y-117927625D02*
X95480000Y-117180000D01*
X104830000Y-125640000D02*
X104495000Y-125640000D01*
X104391000Y-121185838D02*
X104169221Y-120964060D01*
X99235000Y-108225000D02*
X98375883Y-108225000D01*
X95480000Y-117180000D02*
X95480000Y-112592000D01*
X98375883Y-108225000D02*
X97907068Y-107756185D01*
X100310070Y-117927625D02*
X96227625Y-117927625D01*
X103961600Y-123568400D02*
X104391000Y-123139000D01*
X95480000Y-112592000D02*
X95632000Y-112440000D01*
X104700000Y-123586400D02*
X104266400Y-124020000D01*
X104700000Y-121060222D02*
X104700000Y-123586400D01*
X104266400Y-124911400D02*
X104495000Y-125140000D01*
X100529024Y-117399025D02*
X99859581Y-117399025D01*
X99668606Y-117590000D02*
X96620000Y-117590000D01*
X99859581Y-117399025D02*
X99668606Y-117590000D01*
X104680000Y-118240000D02*
X104093600Y-117653600D01*
X100783600Y-117653600D02*
X100640000Y-117510000D01*
X96116400Y-112753600D02*
X97760000Y-112753600D01*
X96620000Y-117590000D02*
X95860000Y-116830000D01*
X95860000Y-116830000D02*
X95860000Y-113010000D01*
X104266400Y-124020000D02*
X104266400Y-124911400D01*
X104495000Y-125140000D02*
X104830000Y-125140000D01*
X97970000Y-111696400D02*
X99206400Y-111696400D01*
X100640000Y-117510000D02*
X100529024Y-117399025D01*
X104093600Y-117653600D02*
X100783600Y-117653600D01*
X104250200Y-120016588D02*
X104250200Y-120610422D01*
X99206400Y-111696400D02*
X99235000Y-111725000D01*
X104250200Y-120610422D02*
X104700000Y-121060222D01*
X95860000Y-113010000D02*
X96116400Y-112753600D01*
X97813006Y-108570000D02*
X98233323Y-108570000D01*
X98233323Y-108570000D02*
X98388323Y-108725000D01*
X94798600Y-117492468D02*
X94798600Y-111736400D01*
X97555000Y-126470000D02*
X96851000Y-125766000D01*
X97890000Y-126470000D02*
X97555000Y-126470000D01*
X96851000Y-125766000D02*
X96851000Y-119544868D01*
X98388323Y-108725000D02*
X99235000Y-108725000D01*
X96851000Y-119544868D02*
X94798600Y-117492468D01*
X97730606Y-108487600D02*
X97813006Y-108570000D01*
X97587600Y-110735000D02*
X97630000Y-110777400D01*
X94798600Y-111736400D02*
X95800000Y-110735000D01*
X95800000Y-110735000D02*
X97587600Y-110735000D01*
X95103400Y-112221046D02*
X95103400Y-117295534D01*
X99235000Y-112225000D02*
X97300000Y-112225000D01*
X97486052Y-125970000D02*
X97890000Y-125970000D01*
X96735000Y-111660000D02*
X95664446Y-111660000D01*
X97155800Y-119347934D02*
X97155800Y-125639748D01*
X97300000Y-112225000D02*
X96735000Y-111660000D01*
X95664446Y-111660000D02*
X95103400Y-112221046D01*
X97155800Y-125639748D02*
X97486052Y-125970000D01*
X95103400Y-117295534D02*
X97155800Y-119347934D01*
D52*
X107290000Y-106700000D02*
X107160000Y-106570000D01*
X107710000Y-100960000D02*
X106700000Y-99950000D01*
X107710000Y-102720000D02*
X107650000Y-102780000D01*
X107160000Y-106570000D02*
X107160000Y-105300000D01*
X107710000Y-100960000D02*
X107710000Y-102720000D01*
X106700000Y-99950000D02*
X103010000Y-99950000D01*
D45*
X112585000Y-130395000D02*
X112730000Y-130540000D01*
D54*
X113317388Y-123590000D02*
X112872400Y-123145012D01*
D45*
X111895000Y-130395000D02*
X112585000Y-130395000D01*
D54*
X114090000Y-123590000D02*
X113317388Y-123590000D01*
D45*
X104836954Y-127017800D02*
X105592359Y-126262395D01*
X107640000Y-122810000D02*
X107640000Y-122820000D01*
X104670000Y-130400000D02*
X104680000Y-130410000D01*
X105592359Y-126262395D02*
X105592359Y-124232400D01*
X105592359Y-124232400D02*
X105592359Y-124157641D01*
X107640000Y-122810000D02*
X107670416Y-122779584D01*
X104766515Y-127017800D02*
X104836954Y-127017800D01*
X107640000Y-122820000D02*
X107620000Y-122840000D01*
X104060000Y-130400000D02*
X104670000Y-130400000D01*
X106020000Y-123730000D02*
X106408322Y-123730000D01*
X106408322Y-123730000D02*
X106484475Y-123653847D01*
X105592359Y-124157641D02*
X106020000Y-123730000D01*
X96275000Y-130285000D02*
X96095000Y-130285000D01*
X99940000Y-123645000D02*
X99940000Y-123613667D01*
X97600000Y-128200000D02*
X98530000Y-127270000D01*
X96095000Y-130285000D02*
X95840000Y-130030000D01*
X99940000Y-123613667D02*
X100138593Y-123415074D01*
X98530000Y-127270000D02*
X98530000Y-124590000D01*
X98530000Y-124590000D02*
X99475000Y-123645000D01*
X99475000Y-123645000D02*
X99940000Y-123645000D01*
X97553360Y-128200000D02*
X97600000Y-128200000D01*
X111900000Y-124600000D02*
X111900000Y-123770000D01*
X111900000Y-123770000D02*
X111920000Y-123750000D01*
D52*
X105180000Y-123965566D02*
X104830000Y-124315566D01*
X104830000Y-124640000D02*
X104830000Y-124315566D01*
X105180000Y-122665000D02*
X105180000Y-123965566D01*
D53*
X104160000Y-104105000D02*
X104350000Y-103915000D01*
X104160000Y-105300000D02*
X104160000Y-104105000D01*
X103660000Y-105300000D02*
X103660000Y-104257500D01*
X103660000Y-104257500D02*
X103380000Y-103977500D01*
D50*
X95413500Y-106828132D02*
X96781632Y-105460000D01*
X96800000Y-107923099D02*
X96870700Y-107852399D01*
X97686794Y-109225000D02*
X96800000Y-108338206D01*
X99235000Y-109225000D02*
X97686794Y-109225000D01*
X96800000Y-108338206D02*
X96800000Y-107923099D01*
X95413500Y-107880000D02*
X95413500Y-106828132D01*
X98090000Y-105460000D02*
X96781632Y-105460000D01*
X98252399Y-106704529D02*
X96970000Y-106704529D01*
X97300000Y-109725000D02*
X96318300Y-108743300D01*
X96318300Y-107356229D02*
X96970000Y-106704529D01*
X97300000Y-109725000D02*
X99235000Y-109725000D01*
X96318300Y-108743300D02*
X96318300Y-107356229D01*
X98330000Y-106060000D02*
X98320000Y-106070000D01*
X96980000Y-110225000D02*
X99235000Y-110225000D01*
X98320000Y-106070000D02*
X96670000Y-106070000D01*
X95965900Y-106774100D02*
X95965900Y-109210900D01*
X95965900Y-109210900D02*
X96980000Y-110225000D01*
X98690000Y-106060000D02*
X98330000Y-106060000D01*
X96670000Y-106070000D02*
X95965900Y-106774100D01*
X101160000Y-116260000D02*
X101160000Y-116650000D01*
D53*
X97650000Y-116331400D02*
X97650000Y-115200000D01*
X99588954Y-117238600D02*
X98557200Y-117238600D01*
D50*
X96820000Y-114800000D02*
X97070000Y-114800000D01*
D53*
X101160000Y-116650000D02*
X100177554Y-116650000D01*
X98557200Y-117238600D02*
X97650000Y-116331400D01*
X97650000Y-115200000D02*
X97180000Y-114730000D01*
D50*
X101141082Y-116241082D02*
X101160000Y-116260000D01*
D53*
X100177554Y-116650000D02*
X99588954Y-117238600D01*
X97180000Y-114730000D02*
X96750000Y-114730000D01*
D50*
X99235000Y-113725000D02*
X96995000Y-113725000D01*
X96995000Y-113725000D02*
X96820000Y-113550000D01*
D45*
X97890000Y-124725000D02*
X97930000Y-124685000D01*
X97890000Y-125470000D02*
X97890000Y-124725000D01*
X116220000Y-124497500D02*
X116220000Y-123840000D01*
X116220000Y-123840000D02*
X116180000Y-123800000D01*
X114660000Y-124548004D02*
X113886313Y-124548004D01*
X113886313Y-124548004D02*
X113431996Y-124548004D01*
X113431996Y-124548004D02*
X113380000Y-124600000D01*
D50*
X116010000Y-127217800D02*
X116220000Y-127007800D01*
X113380000Y-126100000D02*
X113380000Y-126750000D01*
X116220000Y-127007800D02*
X116220000Y-126422500D01*
X113380000Y-126750000D02*
X113847800Y-127217800D01*
X113847800Y-127217800D02*
X116010000Y-127217800D01*
X106310000Y-126140000D02*
X106310000Y-126770000D01*
X106730000Y-127190000D02*
X109050000Y-127190000D01*
X106310000Y-126770000D02*
X106730000Y-127190000D01*
X109260000Y-126980000D02*
X109260000Y-126382500D01*
X109050000Y-127190000D02*
X109260000Y-126980000D01*
D45*
X109260000Y-123890000D02*
X109280000Y-123870000D01*
X106560000Y-124390000D02*
X106310000Y-124640000D01*
X106640000Y-124390000D02*
X106560000Y-124390000D01*
X109260000Y-124457500D02*
X109260000Y-123890000D01*
D50*
X101230000Y-127532500D02*
X101230000Y-128220000D01*
X101230000Y-128220000D02*
X101210000Y-128240000D01*
X99508160Y-127250000D02*
X99508160Y-127108160D01*
X99508160Y-127108160D02*
X99370000Y-126970000D01*
X99508160Y-125180000D02*
X99508160Y-125331840D01*
X99508160Y-125331840D02*
X99370000Y-125470000D01*
X101230000Y-125607500D02*
X101230000Y-124830000D01*
D53*
X105024459Y-115614459D02*
X104810000Y-115400000D01*
X106899458Y-115614459D02*
X105024459Y-115614459D01*
X106899458Y-115614459D02*
X107160000Y-115875001D01*
X107160000Y-115875001D02*
X107160000Y-116650000D01*
X105580000Y-115060000D02*
X106802293Y-115085859D01*
X107660000Y-115943566D02*
X107660000Y-116650000D01*
X106802293Y-115085859D02*
X107660000Y-115943566D01*
D49*
X100847600Y-118670000D02*
X99400000Y-120117600D01*
D46*
X108840000Y-97670000D02*
X110705000Y-97670000D01*
D45*
X111900000Y-126860000D02*
X111790000Y-126970000D01*
D49*
X102547600Y-102617600D02*
X100880000Y-100950000D01*
D45*
X105232600Y-120890000D02*
X104852600Y-120510000D01*
D49*
X98630000Y-120117600D02*
X99400000Y-120117600D01*
D46*
X113680000Y-98950000D02*
X113680000Y-101130000D01*
D45*
X104830000Y-126140000D02*
X103950000Y-126140000D01*
X111900000Y-126100000D02*
X111900000Y-126860000D01*
X104012400Y-122380000D02*
X104012400Y-121342660D01*
D49*
X94370000Y-106682100D02*
X94370000Y-105611703D01*
D45*
X103559800Y-122832600D02*
X104012400Y-122380000D01*
D49*
X102025033Y-120117600D02*
X101590000Y-120117600D01*
X100880000Y-99310000D02*
X100430000Y-98860000D01*
D46*
X110960000Y-97925000D02*
X112655000Y-97925000D01*
D49*
X94370000Y-108260000D02*
X94370000Y-106682100D01*
X103470000Y-118670000D02*
X104130000Y-118670000D01*
X102025033Y-120117600D02*
X102732400Y-120117600D01*
X94370000Y-105611703D02*
X94634102Y-105347601D01*
X98547396Y-120034996D02*
X98630000Y-120117600D01*
D45*
X110630000Y-120251000D02*
X110088140Y-120251000D01*
D49*
X97652400Y-127210000D02*
X97890000Y-126972400D01*
X96272400Y-120240000D02*
X96272400Y-126272401D01*
X104790000Y-119330000D02*
X105007600Y-119547600D01*
D45*
X104852600Y-120510000D02*
X104852600Y-119392600D01*
X103950000Y-126140000D02*
X103830000Y-126020000D01*
X111790000Y-126970000D02*
X110646600Y-125826600D01*
D46*
X113680000Y-101130000D02*
X113880000Y-101330000D01*
X112655000Y-97925000D02*
X113680000Y-98950000D01*
X110705000Y-97670000D02*
X110960000Y-97925000D01*
D49*
X96272400Y-126272401D02*
X96900000Y-126900001D01*
D45*
X110646600Y-121371926D02*
X110942400Y-121076126D01*
X110942400Y-121076126D02*
X110942400Y-120563400D01*
D49*
X96272400Y-120240000D02*
X96272400Y-119572400D01*
D45*
X104852600Y-119392600D02*
X104790000Y-119330000D01*
X102787340Y-120117600D02*
X102025033Y-120117600D01*
D49*
X104130000Y-118670000D02*
X104790000Y-119330000D01*
X100430000Y-98860000D02*
X99780000Y-98860000D01*
D46*
X113880000Y-101330000D02*
X113880000Y-102990000D01*
D49*
X104725000Y-119265000D02*
X105007600Y-119547600D01*
X96900000Y-126900001D02*
X96900000Y-127210000D01*
X105007600Y-119547600D02*
X105477600Y-119547600D01*
X99400000Y-120117600D02*
X101590000Y-120117600D01*
X100880000Y-100950000D02*
X100880000Y-99310000D01*
X96900000Y-127210000D02*
X97652400Y-127210000D01*
D45*
X110646600Y-125826600D02*
X110646600Y-121371926D01*
X110942400Y-120563400D02*
X110630000Y-120251000D01*
X103559800Y-125910000D02*
X103559800Y-122832600D01*
D49*
X103470000Y-118670000D02*
X100847600Y-118670000D01*
X102547600Y-102754800D02*
X102547600Y-102617600D01*
D45*
X104012400Y-121342660D02*
X102787340Y-120117600D01*
D49*
X96272400Y-119572400D02*
X94370000Y-117670000D01*
X94370000Y-117670000D02*
X94370000Y-108260000D01*
D45*
X109449140Y-120890000D02*
X105232600Y-120890000D01*
X110088140Y-120251000D02*
X109449140Y-120890000D01*
D52*
X110357500Y-103780000D02*
X110674999Y-103780000D01*
D45*
X115258979Y-108170000D02*
X116438979Y-109350000D01*
D52*
X113200000Y-105080000D02*
X113200000Y-104520000D01*
D50*
X111425000Y-108725000D02*
X111950000Y-108200000D01*
D49*
X118049800Y-131020000D02*
X118049800Y-132673544D01*
D45*
X101345000Y-130935000D02*
X101650000Y-131240000D01*
X108270000Y-131700000D02*
X109080000Y-131700000D01*
D50*
X111952500Y-108202500D02*
X112390000Y-108202500D01*
D45*
X109090000Y-131050000D02*
X109410000Y-131370000D01*
X113177500Y-108202500D02*
X113210000Y-108170000D01*
X117040000Y-131695000D02*
X117325000Y-131410000D01*
X116438979Y-109350000D02*
X117070400Y-109350000D01*
D49*
X112767600Y-132880000D02*
X112583800Y-133063800D01*
X111910000Y-101090000D02*
X111800000Y-101200000D01*
D50*
X110585000Y-108725000D02*
X111425000Y-108725000D01*
D49*
X111800000Y-101200000D02*
X111800000Y-101810000D01*
X118049800Y-131020000D02*
X118049800Y-130280200D01*
X117659800Y-131410000D02*
X117325000Y-131410000D01*
X117515744Y-133207600D02*
X115647600Y-133207600D01*
D45*
X116105000Y-131695000D02*
X117040000Y-131695000D01*
D52*
X112797028Y-105482972D02*
X113200000Y-105080000D01*
D45*
X108270000Y-131050000D02*
X109090000Y-131050000D01*
D49*
X116710000Y-106010000D02*
X117690000Y-106990000D01*
X112583800Y-133063800D02*
X111001400Y-133063800D01*
D45*
X113210000Y-108170000D02*
X115258979Y-108170000D01*
D49*
X110770000Y-133063800D02*
X110156200Y-133063800D01*
X114690000Y-106010000D02*
X116710000Y-106010000D01*
D45*
X101305000Y-131585000D02*
X101650000Y-131240000D01*
D49*
X111001400Y-133063800D02*
X110770000Y-133063800D01*
X112580000Y-102590000D02*
X112580000Y-103900000D01*
X111800000Y-101810000D02*
X112580000Y-102590000D01*
X118049800Y-110329800D02*
X118049800Y-130280200D01*
X118050000Y-107350000D02*
X117690000Y-106990000D01*
X110160000Y-131670000D02*
X109860000Y-131370000D01*
X110160000Y-132453800D02*
X110770000Y-133063800D01*
X118049800Y-131020000D02*
X117659800Y-131410000D01*
X118049800Y-110329800D02*
X118050000Y-110329600D01*
D45*
X116960000Y-131045000D02*
X117325000Y-131410000D01*
D52*
X111299958Y-104404959D02*
X111299958Y-105298716D01*
D45*
X117070400Y-109350000D02*
X117790000Y-109350000D01*
D49*
X118049800Y-132673544D02*
X117515744Y-133207600D01*
X103230000Y-133210000D02*
X102640000Y-132620000D01*
X109860000Y-131370000D02*
X109410000Y-131370000D01*
D45*
X100485000Y-131585000D02*
X101305000Y-131585000D01*
X100485000Y-130935000D02*
X101345000Y-130935000D01*
D49*
X118050000Y-109690000D02*
X118050000Y-107350000D01*
D45*
X109080000Y-131700000D02*
X109410000Y-131370000D01*
D49*
X112580000Y-103900000D02*
X113200000Y-104520000D01*
X102640000Y-132620000D02*
X102640000Y-131590000D01*
D45*
X117790000Y-109350000D02*
X118050000Y-109610000D01*
D49*
X115320000Y-132880000D02*
X112767600Y-132880000D01*
X110156200Y-133063800D02*
X110010000Y-133210000D01*
X102640000Y-131590000D02*
X102290000Y-131240000D01*
X110010000Y-133210000D02*
X103230000Y-133210000D01*
X115647600Y-133207600D02*
X115320000Y-132880000D01*
D45*
X112390000Y-108202500D02*
X113177500Y-108202500D01*
D49*
X110160000Y-131670000D02*
X110160000Y-132453800D01*
X113200000Y-104520000D02*
X114690000Y-106010000D01*
D52*
X112632972Y-105482972D02*
X112797028Y-105482972D01*
D49*
X102290000Y-131240000D02*
X101650000Y-131240000D01*
D45*
X116105000Y-131045000D02*
X116960000Y-131045000D01*
D50*
X111950000Y-108200000D02*
X111952500Y-108202500D01*
D49*
X118050000Y-109610000D02*
X118050000Y-109690000D01*
D52*
X110674999Y-103780000D02*
X111299958Y-104404959D01*
D49*
X118050000Y-110329600D02*
X118050000Y-109690000D01*
X111910000Y-99800000D02*
X111910000Y-101090000D01*
M02*
