%TF.GenerationSoftware,KiCad,Pcbnew,8.0.9-8.0.9-0~ubuntu20.04.1*%
%TF.CreationDate,2025-06-03T10:24:10+09:00*%
%TF.ProjectId,MINI VESC,4d494e49-2056-4455-9343-2e6b69636164,rev?*%
%TF.SameCoordinates,Original*%
%TF.FileFunction,Copper,L4,Bot*%
%TF.FilePolarity,Positive*%
%FSLAX46Y46*%
G04 Gerber Fmt 4.6, Leading zero omitted, Abs format (unit mm)*
G04 Created by KiCad (PCBNEW 8.0.9-8.0.9-0~ubuntu20.04.1) date 2025-06-03 10:24:10*
%MOMM*%
%LPD*%
G01*
G04 APERTURE LIST*
G04 Aperture macros list*
%AMRoundRect*
0 Rectangle with rounded corners*
0 $1 Rounding radius*
0 $2 $3 $4 $5 $6 $7 $8 $9 X,Y pos of 4 corners*
0 Add a 4 corners polygon primitive as box body*
4,1,4,$2,$3,$4,$5,$6,$7,$8,$9,$2,$3,0*
0 Add four circle primitives for the rounded corners*
1,1,$1+$1,$2,$3*
1,1,$1+$1,$4,$5*
1,1,$1+$1,$6,$7*
1,1,$1+$1,$8,$9*
0 Add four rect primitives between the rounded corners*
20,1,$1+$1,$2,$3,$4,$5,0*
20,1,$1+$1,$4,$5,$6,$7,0*
20,1,$1+$1,$6,$7,$8,$9,0*
20,1,$1+$1,$8,$9,$2,$3,0*%
G04 Aperture macros list end*
%TA.AperFunction,ComponentPad*%
%ADD10R,0.850000X0.850000*%
%TD*%
%TA.AperFunction,ComponentPad*%
%ADD11O,0.850000X0.850000*%
%TD*%
%TA.AperFunction,ComponentPad*%
%ADD12RoundRect,0.150000X0.150000X0.250000X-0.150000X0.250000X-0.150000X-0.250000X0.150000X-0.250000X0*%
%TD*%
%TA.AperFunction,ComponentPad*%
%ADD13R,1.350000X1.350000*%
%TD*%
%TA.AperFunction,ComponentPad*%
%ADD14RoundRect,0.200000X0.450000X-0.200000X0.450000X0.200000X-0.450000X0.200000X-0.450000X-0.200000X0*%
%TD*%
%TA.AperFunction,ComponentPad*%
%ADD15O,1.300000X0.800000*%
%TD*%
%TA.AperFunction,SMDPad,CuDef*%
%ADD16RoundRect,0.100000X-0.100000X0.217500X-0.100000X-0.217500X0.100000X-0.217500X0.100000X0.217500X0*%
%TD*%
%TA.AperFunction,SMDPad,CuDef*%
%ADD17RoundRect,0.500000X0.500000X-0.750000X0.500000X0.750000X-0.500000X0.750000X-0.500000X-0.750000X0*%
%TD*%
%TA.AperFunction,SMDPad,CuDef*%
%ADD18RoundRect,0.250000X-0.475000X0.250000X-0.475000X-0.250000X0.475000X-0.250000X0.475000X0.250000X0*%
%TD*%
%TA.AperFunction,SMDPad,CuDef*%
%ADD19RoundRect,0.150000X0.150000X-0.587500X0.150000X0.587500X-0.150000X0.587500X-0.150000X-0.587500X0*%
%TD*%
%TA.AperFunction,SMDPad,CuDef*%
%ADD20RoundRect,0.250000X0.475000X-0.250000X0.475000X0.250000X-0.475000X0.250000X-0.475000X-0.250000X0*%
%TD*%
%TA.AperFunction,SMDPad,CuDef*%
%ADD21RoundRect,0.140000X-0.170000X0.140000X-0.170000X-0.140000X0.170000X-0.140000X0.170000X0.140000X0*%
%TD*%
%TA.AperFunction,SMDPad,CuDef*%
%ADD22R,3.400000X1.300000*%
%TD*%
%TA.AperFunction,SMDPad,CuDef*%
%ADD23RoundRect,0.100000X0.217500X0.100000X-0.217500X0.100000X-0.217500X-0.100000X0.217500X-0.100000X0*%
%TD*%
%TA.AperFunction,ComponentPad*%
%ADD24RoundRect,0.200000X-0.450000X0.200000X-0.450000X-0.200000X0.450000X-0.200000X0.450000X0.200000X0*%
%TD*%
%TA.AperFunction,SMDPad,CuDef*%
%ADD25RoundRect,0.150000X0.512500X0.150000X-0.512500X0.150000X-0.512500X-0.150000X0.512500X-0.150000X0*%
%TD*%
%TA.AperFunction,SMDPad,CuDef*%
%ADD26RoundRect,0.500000X0.750000X0.500000X-0.750000X0.500000X-0.750000X-0.500000X0.750000X-0.500000X0*%
%TD*%
%TA.AperFunction,SMDPad,CuDef*%
%ADD27RoundRect,0.140000X-0.140000X-0.170000X0.140000X-0.170000X0.140000X0.170000X-0.140000X0.170000X0*%
%TD*%
%TA.AperFunction,SMDPad,CuDef*%
%ADD28RoundRect,0.140000X0.170000X-0.140000X0.170000X0.140000X-0.170000X0.140000X-0.170000X-0.140000X0*%
%TD*%
%TA.AperFunction,SMDPad,CuDef*%
%ADD29RoundRect,0.250000X1.500000X-0.250000X1.500000X0.250000X-1.500000X0.250000X-1.500000X-0.250000X0*%
%TD*%
%TA.AperFunction,SMDPad,CuDef*%
%ADD30RoundRect,0.250001X1.449999X-0.499999X1.449999X0.499999X-1.449999X0.499999X-1.449999X-0.499999X0*%
%TD*%
%TA.AperFunction,SMDPad,CuDef*%
%ADD31RoundRect,0.250000X-1.500000X0.250000X-1.500000X-0.250000X1.500000X-0.250000X1.500000X0.250000X0*%
%TD*%
%TA.AperFunction,SMDPad,CuDef*%
%ADD32RoundRect,0.250001X-1.449999X0.499999X-1.449999X-0.499999X1.449999X-0.499999X1.449999X0.499999X0*%
%TD*%
%TA.AperFunction,ViaPad*%
%ADD33C,1.700000*%
%TD*%
%TA.AperFunction,ViaPad*%
%ADD34C,1.500000*%
%TD*%
%TA.AperFunction,ViaPad*%
%ADD35C,0.700000*%
%TD*%
%TA.AperFunction,ViaPad*%
%ADD36C,1.000000*%
%TD*%
%TA.AperFunction,ViaPad*%
%ADD37C,0.600000*%
%TD*%
%TA.AperFunction,ViaPad*%
%ADD38C,0.800000*%
%TD*%
%TA.AperFunction,ViaPad*%
%ADD39C,0.500000*%
%TD*%
%TA.AperFunction,ViaPad*%
%ADD40C,1.200000*%
%TD*%
%TA.AperFunction,ViaPad*%
%ADD41C,1.400000*%
%TD*%
%TA.AperFunction,Conductor*%
%ADD42C,1.100000*%
%TD*%
%TA.AperFunction,Conductor*%
%ADD43C,1.200000*%
%TD*%
%TA.AperFunction,Conductor*%
%ADD44C,0.500000*%
%TD*%
%TA.AperFunction,Conductor*%
%ADD45C,0.152400*%
%TD*%
%TA.AperFunction,Conductor*%
%ADD46C,0.300000*%
%TD*%
%TA.AperFunction,Conductor*%
%ADD47C,0.400000*%
%TD*%
%TA.AperFunction,Conductor*%
%ADD48C,0.600000*%
%TD*%
%TA.AperFunction,Conductor*%
%ADD49C,1.000000*%
%TD*%
%TA.AperFunction,Conductor*%
%ADD50C,0.200000*%
%TD*%
%TA.AperFunction,Conductor*%
%ADD51C,0.250000*%
%TD*%
G04 APERTURE END LIST*
D10*
X95200000Y-109350000D03*
D11*
X95200000Y-110350000D03*
D12*
X116720000Y-125460000D03*
X115720000Y-125460000D03*
X101730000Y-126570000D03*
X100730000Y-126570000D03*
X109760000Y-125420000D03*
X108760000Y-125420000D03*
D13*
X110000000Y-137500000D03*
X107500000Y-137500000D03*
D14*
X96750000Y-115980000D03*
D15*
X96750000Y-114730000D03*
X96750000Y-113480000D03*
D13*
X105000000Y-137500000D03*
D16*
X113990000Y-100042500D03*
X113990000Y-100857500D03*
D17*
X112500000Y-123250000D03*
X112500000Y-119750000D03*
D18*
X107620000Y-109240000D03*
X107620000Y-111140000D03*
D19*
X107740000Y-100575000D03*
X105840000Y-100575000D03*
X106790000Y-98700000D03*
D17*
X100250000Y-123250000D03*
X100250000Y-119750000D03*
D20*
X103650000Y-114960000D03*
X103650000Y-113060000D03*
X109150000Y-99580000D03*
X109150000Y-97680000D03*
D21*
X107760000Y-97470000D03*
X107760000Y-98430000D03*
D22*
X111780000Y-100030000D03*
X111780000Y-97930000D03*
D23*
X113740000Y-104820000D03*
X112925000Y-104820000D03*
D24*
X99780000Y-98860000D03*
D15*
X99780000Y-100110000D03*
X99780000Y-101360000D03*
X99780000Y-102610000D03*
X99780000Y-103860000D03*
D14*
X103010000Y-101200000D03*
D15*
X103010000Y-99950000D03*
X103010000Y-98700000D03*
D25*
X113400000Y-101870000D03*
X113400000Y-102820000D03*
X113400000Y-103770000D03*
X111125000Y-103770000D03*
X111125000Y-102820000D03*
X111125000Y-101870000D03*
D26*
X108770000Y-122000000D03*
X105270000Y-122000000D03*
D27*
X105770000Y-101940000D03*
X106730000Y-101940000D03*
D28*
X109640000Y-103780000D03*
X109640000Y-102820000D03*
D29*
X101850000Y-115000000D03*
X101850000Y-113000000D03*
X101850000Y-111000000D03*
X101850000Y-109000000D03*
D30*
X96100000Y-117350000D03*
X96100000Y-106650000D03*
D23*
X111830000Y-104650000D03*
X111015000Y-104650000D03*
D31*
X110425000Y-109242500D03*
X110425000Y-111242500D03*
X110425000Y-113242500D03*
X110425000Y-115242500D03*
D32*
X116175000Y-106892500D03*
X116175000Y-117592500D03*
D33*
X102860000Y-121820000D03*
D34*
X107050000Y-129472600D03*
D35*
X109845200Y-130550000D03*
D36*
X106460000Y-107850000D03*
D35*
X102330000Y-130400000D03*
D34*
X114100000Y-129472600D03*
D37*
X112020000Y-116550000D03*
D33*
X107620000Y-111140000D03*
D35*
X117190000Y-134050000D03*
D36*
X106730000Y-102280000D03*
D35*
X103730000Y-127017800D03*
D37*
X114690000Y-111363200D03*
X114370000Y-116050000D03*
X98540000Y-115327400D03*
D35*
X109500000Y-117830000D03*
D34*
X114644719Y-126215401D03*
D35*
X117320000Y-132410000D03*
D33*
X95070000Y-121330000D03*
D37*
X101260000Y-102880000D03*
D35*
X109200000Y-133912400D03*
D34*
X107640000Y-126187600D03*
D35*
X109410000Y-132330000D03*
D37*
X107010000Y-121542400D03*
D35*
X104300000Y-99270000D03*
D37*
X112340000Y-112210000D03*
D35*
X112302400Y-129124983D03*
X101650000Y-132200000D03*
D33*
X103400000Y-113000000D03*
D38*
X95120000Y-129340000D03*
D37*
X97684400Y-120970000D03*
D38*
X103710000Y-129322600D03*
D37*
X99370000Y-116710000D03*
X107030000Y-119225000D03*
D35*
X112750000Y-126940000D03*
X109671801Y-102037600D03*
D37*
X113852400Y-103850000D03*
X116105000Y-130382598D03*
X107434291Y-130611936D03*
D35*
X99637005Y-130425000D03*
D37*
X112694899Y-133736443D03*
X115360000Y-118794900D03*
X116089600Y-119120000D03*
X111438683Y-134621317D03*
X105370000Y-135600000D03*
X116640200Y-119710779D03*
X103650000Y-134414800D03*
X111430000Y-135440000D03*
D39*
X100495572Y-114097600D03*
D37*
X105560000Y-102890000D03*
D38*
X101770000Y-100090000D03*
D39*
X101921607Y-113999840D03*
D37*
X109120000Y-119580000D03*
X109200000Y-114194900D03*
X104890000Y-113020000D03*
X105065200Y-112192400D03*
X104180000Y-108460000D03*
X108670000Y-118900000D03*
X109357603Y-113308944D03*
X102282400Y-111000000D03*
X116945000Y-110404800D03*
D35*
X116659212Y-108647600D03*
D39*
X110390000Y-120820000D03*
D35*
X113972601Y-107058600D03*
D37*
X101561791Y-121715604D03*
X112570000Y-136120000D03*
D35*
X117347600Y-108144899D03*
D37*
X106010000Y-136386024D03*
X116120000Y-132510000D03*
X114798750Y-133558750D03*
X108280000Y-132557600D03*
X108460000Y-134960000D03*
X100907179Y-132503424D03*
X102870000Y-134414800D03*
X102570000Y-107720000D03*
X107120000Y-112550000D03*
X100620000Y-107720000D03*
X111090000Y-117990000D03*
X105070000Y-108380000D03*
X105040000Y-111110000D03*
X110591400Y-119648600D03*
X106791656Y-114870200D03*
X97907068Y-107756185D03*
X101730000Y-119440000D03*
X95632000Y-112440000D03*
X100310070Y-117927625D03*
X96087600Y-111263600D03*
X104250200Y-120016588D03*
X96430000Y-112375823D03*
X104680000Y-118240000D03*
X97630000Y-110777400D03*
X97730606Y-108487600D03*
D35*
X107290000Y-106700000D03*
X107650000Y-102780000D03*
D37*
X112730000Y-130540000D03*
D40*
X112872400Y-123145012D03*
X107670416Y-122779584D03*
D37*
X104680000Y-130410000D03*
X104766515Y-127017800D03*
X106484475Y-123653847D03*
D41*
X99930000Y-123520000D03*
D35*
X97553360Y-128200000D03*
X95840000Y-130030000D03*
D37*
X96870700Y-107852399D03*
X95413500Y-107880000D03*
X98090000Y-105460000D03*
X98252399Y-106704529D03*
X98690000Y-106060000D03*
X116180000Y-123800000D03*
X114660000Y-124548004D03*
X106640000Y-124390000D03*
X109280000Y-123870000D03*
X99508160Y-127250000D03*
X101210000Y-128240000D03*
X99508160Y-125180000D03*
X101230000Y-124830000D03*
X105580000Y-120210000D03*
X106200728Y-115422600D03*
X107589200Y-114870000D03*
X105520000Y-118080000D03*
D35*
X102547600Y-102754800D03*
D38*
X94634102Y-105347601D03*
X109040000Y-97570000D03*
D35*
X96272400Y-120240000D03*
X98547396Y-120034996D03*
D37*
X112632972Y-105482972D03*
X111299958Y-105298716D03*
X98185163Y-112753599D03*
X97432803Y-112745651D03*
D42*
X105305208Y-114022400D02*
X104766424Y-114022400D01*
D43*
X102860000Y-121820000D02*
X102810000Y-121770000D01*
X102810000Y-115960000D02*
X101850000Y-115000000D01*
X110425000Y-109242500D02*
X107622500Y-109242500D01*
X107620000Y-109240000D02*
X107622500Y-109242500D01*
D44*
X107620000Y-107950000D02*
X108650000Y-106920000D01*
D42*
X103828824Y-114960000D02*
X103650000Y-114960000D01*
D43*
X107620000Y-109240000D02*
X106895000Y-109240000D01*
D42*
X104766424Y-114022400D02*
X103828824Y-114960000D01*
D43*
X102810000Y-121770000D02*
X102810000Y-115960000D01*
D44*
X107620000Y-109240000D02*
X107620000Y-107950000D01*
D45*
X112140000Y-103250000D02*
X112140000Y-104340000D01*
D42*
X106067600Y-113260008D02*
X105305208Y-114022400D01*
D45*
X111710000Y-102820000D02*
X112140000Y-103250000D01*
D44*
X109640000Y-102820000D02*
X111125000Y-102820000D01*
D42*
X106067600Y-110067400D02*
X106067600Y-112680000D01*
D44*
X109070000Y-102820000D02*
X109640000Y-102820000D01*
X108650000Y-103240000D02*
X109070000Y-102820000D01*
D45*
X111125000Y-102820000D02*
X111710000Y-102820000D01*
D42*
X106895000Y-109240000D02*
X106067600Y-110067400D01*
X106067600Y-112680000D02*
X106067600Y-113260008D01*
D45*
X112140000Y-104340000D02*
X111830000Y-104650000D01*
D44*
X108650000Y-106920000D02*
X108650000Y-103240000D01*
D46*
X108000000Y-98430000D02*
X109150000Y-99580000D01*
D44*
X100960000Y-102580000D02*
X100960000Y-101000000D01*
X105412400Y-103592400D02*
X106460000Y-104640000D01*
X101260000Y-102880000D02*
X101972400Y-103592400D01*
X100960000Y-101000000D02*
X100070000Y-100110000D01*
D47*
X104310000Y-100370000D02*
X104310000Y-99280000D01*
D48*
X114604800Y-105035200D02*
X113640000Y-106000000D01*
D43*
X100100000Y-113000000D02*
X101850000Y-113000000D01*
X95070000Y-119760000D02*
X95700000Y-119130000D01*
D46*
X112603509Y-111210000D02*
X114536800Y-111210000D01*
D47*
X103730000Y-127017800D02*
X103730000Y-129302600D01*
D43*
X99370000Y-117454536D02*
X99370000Y-116710000D01*
D44*
X108735000Y-99580000D02*
X107740000Y-100575000D01*
D47*
X101660000Y-130580000D02*
X101660000Y-132190000D01*
X95120000Y-129340000D02*
X95120000Y-121704536D01*
D48*
X112920000Y-106980000D02*
X112920000Y-106720000D01*
D43*
X110425000Y-111242500D02*
X107722500Y-111242500D01*
D44*
X101660000Y-132190000D02*
X101650000Y-132200000D01*
D47*
X109407600Y-133704800D02*
X109407600Y-132790000D01*
D48*
X110425000Y-111242500D02*
X112537500Y-111242500D01*
X114604800Y-103362300D02*
X114604800Y-105035200D01*
X112120000Y-106180000D02*
X112920000Y-106980000D01*
D44*
X100070000Y-100110000D02*
X99780000Y-100110000D01*
X106730000Y-101940000D02*
X106730000Y-101585000D01*
D46*
X97684400Y-120970000D02*
X95430000Y-120970000D01*
D44*
X106730000Y-101585000D02*
X107740000Y-100575000D01*
D48*
X112920000Y-110860000D02*
X112920000Y-106980000D01*
D47*
X112152400Y-127537600D02*
X112152400Y-129050000D01*
X103730000Y-129302600D02*
X103710000Y-129322600D01*
D48*
X114431250Y-103188750D02*
X114062499Y-102820000D01*
D46*
X107010000Y-121542400D02*
X107010000Y-119245000D01*
D48*
X114431250Y-103188750D02*
X114604800Y-103362300D01*
D49*
X107640000Y-126187600D02*
X107640000Y-128882600D01*
D46*
X114536800Y-111210000D02*
X114690000Y-111363200D01*
D47*
X112750000Y-126940000D02*
X112152400Y-127537600D01*
D48*
X112537500Y-111242500D02*
X112920000Y-110860000D01*
D46*
X112820000Y-115750000D02*
X112820000Y-111960000D01*
X112820000Y-115750000D02*
X113120000Y-116050000D01*
D47*
X100080000Y-113000000D02*
X99570000Y-113510000D01*
D46*
X110770000Y-116550000D02*
X112020000Y-116550000D01*
D44*
X106460000Y-102550000D02*
X106460000Y-104640000D01*
D50*
X112570000Y-112210000D02*
X112820000Y-111960000D01*
D46*
X95430000Y-120970000D02*
X95070000Y-121330000D01*
D48*
X114062499Y-102820000D02*
X113400000Y-102820000D01*
D43*
X95700000Y-119130000D02*
X97694536Y-119130000D01*
D47*
X103010000Y-101200000D02*
X103480000Y-101200000D01*
D44*
X101972400Y-103592400D02*
X105412400Y-103592400D01*
D48*
X112920000Y-106720000D02*
X113640000Y-106000000D01*
D44*
X106730000Y-102280000D02*
X106730000Y-101940000D01*
D47*
X109407600Y-132790000D02*
X109407600Y-132378717D01*
D49*
X114644719Y-128927881D02*
X114100000Y-129472600D01*
D47*
X99570000Y-113510000D02*
X99570000Y-114290000D01*
X112227417Y-129050000D02*
X112302400Y-129124983D01*
X109407600Y-130987600D02*
X109845200Y-130550000D01*
D49*
X114644719Y-126215401D02*
X114644719Y-128927881D01*
D50*
X112340000Y-112210000D02*
X112570000Y-112210000D01*
D47*
X109407600Y-132378717D02*
X109407600Y-130987600D01*
D46*
X107760000Y-98430000D02*
X108000000Y-98430000D01*
D44*
X109150000Y-99580000D02*
X108735000Y-99580000D01*
D46*
X112820000Y-111426491D02*
X112603509Y-111210000D01*
D43*
X99347600Y-116687600D02*
X99347600Y-113752400D01*
X99370000Y-116710000D02*
X99347600Y-116687600D01*
D44*
X97850000Y-115320000D02*
X98540000Y-115320000D01*
D47*
X104310000Y-99280000D02*
X104300000Y-99270000D01*
D43*
X107722500Y-111242500D02*
X107620000Y-111140000D01*
D44*
X97120000Y-116050000D02*
X96820000Y-116050000D01*
X98540000Y-115320000D02*
X99570000Y-114290000D01*
D47*
X109200000Y-133912400D02*
X109407600Y-133704800D01*
D48*
X109640000Y-103780000D02*
X109640000Y-104810000D01*
D44*
X101260000Y-102880000D02*
X100960000Y-102580000D01*
D48*
X111010000Y-106180000D02*
X112120000Y-106180000D01*
D46*
X109500000Y-117830000D02*
X109500000Y-117820000D01*
D47*
X102330000Y-130400000D02*
X101840000Y-130400000D01*
X112152400Y-129050000D02*
X112227417Y-129050000D01*
D46*
X112720000Y-115850000D02*
X112559394Y-116010606D01*
D43*
X99347600Y-113752400D02*
X100100000Y-113000000D01*
X95070000Y-121330000D02*
X95070000Y-119760000D01*
D46*
X112020000Y-116550000D02*
X112559394Y-116010606D01*
D47*
X113740000Y-104820000D02*
X113740000Y-105900000D01*
X103480000Y-101200000D02*
X104310000Y-100370000D01*
D44*
X106730000Y-102280000D02*
X106460000Y-102550000D01*
D47*
X117320000Y-132410000D02*
X117320000Y-133920000D01*
D46*
X112820000Y-111960000D02*
X112820000Y-111426491D01*
D43*
X97694536Y-119130000D02*
X99370000Y-117454536D01*
D47*
X101840000Y-130400000D02*
X101660000Y-130580000D01*
D49*
X107640000Y-128882600D02*
X107050000Y-129472600D01*
D47*
X101850000Y-113000000D02*
X100080000Y-113000000D01*
D44*
X106460000Y-104640000D02*
X106460000Y-107850000D01*
D46*
X107010000Y-119245000D02*
X107030000Y-119225000D01*
D47*
X113740000Y-105900000D02*
X113640000Y-106000000D01*
D48*
X109640000Y-104810000D02*
X111010000Y-106180000D01*
D46*
X113120000Y-116050000D02*
X114370000Y-116050000D01*
X112559394Y-116010606D02*
X112820000Y-115750000D01*
D47*
X117320000Y-133920000D02*
X117190000Y-134050000D01*
D46*
X109500000Y-117820000D02*
X110770000Y-116550000D01*
D44*
X97850000Y-115320000D02*
X97120000Y-116050000D01*
D46*
X113990000Y-100042500D02*
X111792500Y-100042500D01*
D44*
X111125000Y-101870000D02*
X110740000Y-101870000D01*
X111125000Y-100685000D02*
X111780000Y-100030000D01*
X111125000Y-101870000D02*
X111125000Y-100685000D01*
D47*
X111125000Y-101870000D02*
X109839401Y-101870000D01*
D46*
X111792500Y-100042500D02*
X111780000Y-100030000D01*
D47*
X109839401Y-101870000D02*
X109671801Y-102037600D01*
D46*
X113990000Y-101370000D02*
X113490000Y-101870000D01*
X113990000Y-100857500D02*
X113990000Y-101370000D01*
X113490000Y-101870000D02*
X113400000Y-101870000D01*
X113772400Y-103770000D02*
X113852400Y-103850000D01*
X112925000Y-104820000D02*
X112925000Y-104255000D01*
X113400000Y-103770000D02*
X113772400Y-103770000D01*
X112925000Y-104255000D02*
X112920000Y-104250000D01*
X112920000Y-104250000D02*
X113400000Y-103770000D01*
D47*
X115747119Y-130024717D02*
X116105000Y-130382598D01*
X115747119Y-125487119D02*
X115747119Y-130024717D01*
X115720000Y-125460000D02*
X115747119Y-125487119D01*
D46*
X108760000Y-129286227D02*
X107434291Y-130611936D01*
X108760000Y-125420000D02*
X108760000Y-129286227D01*
X101812400Y-127990477D02*
X101812400Y-129477600D01*
X100865000Y-130425000D02*
X99637005Y-130425000D01*
X101812400Y-129477600D02*
X101075000Y-130215000D01*
X101075000Y-130215000D02*
X100865000Y-130425000D01*
X100730000Y-126570000D02*
X100730000Y-126908077D01*
X100730000Y-126908077D02*
X101812400Y-127990477D01*
D45*
X113354325Y-126121845D02*
X113354325Y-128834325D01*
X117179074Y-123880000D02*
X116519074Y-124540000D01*
X113450000Y-130450000D02*
X113450000Y-133060000D01*
X114718757Y-125236801D02*
X114239369Y-125236801D01*
X112930000Y-129930000D02*
X113450000Y-130450000D01*
X113354325Y-128834325D02*
X112930000Y-129258650D01*
X115360000Y-118794900D02*
X115360000Y-119650926D01*
X112930000Y-129258650D02*
X112930000Y-129930000D01*
X116519074Y-124540000D02*
X115415558Y-124540000D01*
X117179074Y-121470000D02*
X117179074Y-123880000D01*
X115415558Y-124540000D02*
X114718757Y-125236801D01*
X113450000Y-133060000D02*
X112730000Y-133780000D01*
X114239369Y-125236801D02*
X113354325Y-126121845D01*
X115360000Y-119650926D02*
X117179074Y-121470000D01*
X115958494Y-131220400D02*
X112557577Y-134621317D01*
X112557577Y-134621317D02*
X111438683Y-134621317D01*
X116089600Y-119120000D02*
X116089600Y-119907733D01*
X117483874Y-130883874D02*
X117147348Y-131220400D01*
X117483874Y-121302007D02*
X117483874Y-130883874D01*
X117147348Y-131220400D02*
X115958494Y-131220400D01*
X116089600Y-119907733D02*
X117483874Y-121302007D01*
X111430000Y-135440000D02*
X112169946Y-135440000D01*
X113294746Y-134315200D02*
X115433400Y-134315200D01*
X112169946Y-135440000D02*
X113294746Y-134315200D01*
X116648600Y-132150200D02*
X117798800Y-131000000D01*
X117798800Y-120869379D02*
X116640200Y-119710779D01*
X115433400Y-134315200D02*
X116648600Y-133100000D01*
X117798800Y-131000000D02*
X117798800Y-120869379D01*
X116648600Y-133100000D02*
X116648600Y-132150200D01*
X104835200Y-135600000D02*
X103650000Y-134414800D01*
X105370000Y-135600000D02*
X104835200Y-135600000D01*
D51*
X101823847Y-114097600D02*
X101921607Y-113999840D01*
D44*
X101810000Y-101540000D02*
X101810000Y-100130000D01*
D51*
X100495572Y-114097600D02*
X101823847Y-114097600D01*
D44*
X105770000Y-100645000D02*
X105840000Y-100575000D01*
X102272400Y-102002400D02*
X101810000Y-101540000D01*
D51*
X105560000Y-102150000D02*
X105770000Y-101940000D01*
D44*
X105770000Y-101940000D02*
X105770000Y-100645000D01*
D51*
X105560000Y-102890000D02*
X105560000Y-102150000D01*
D44*
X105707600Y-102002400D02*
X102272400Y-102002400D01*
X105770000Y-101940000D02*
X105707600Y-102002400D01*
D45*
X110425000Y-115242500D02*
X109377400Y-114194900D01*
X103600000Y-109000000D02*
X101850000Y-109000000D01*
X108850000Y-116817500D02*
X110425000Y-115242500D01*
X104890000Y-112764754D02*
X103980000Y-111854754D01*
X109120000Y-119580000D02*
X109250000Y-119450000D01*
X109250000Y-118540000D02*
X108850000Y-118140000D01*
X109250000Y-119450000D02*
X109250000Y-118540000D01*
X104890000Y-113020000D02*
X104890000Y-112764754D01*
X108850000Y-118140000D02*
X108850000Y-116817500D01*
X103980000Y-109380000D02*
X103600000Y-109000000D01*
X109377400Y-114194900D02*
X109200000Y-114194900D01*
X103980000Y-111854754D02*
X103980000Y-109380000D01*
X105065200Y-112192400D02*
X104458600Y-111585800D01*
X109404846Y-113242500D02*
X110425000Y-113242500D01*
X109532500Y-113242500D02*
X110425000Y-113242500D01*
X108422600Y-118550000D02*
X108422600Y-114400000D01*
X108422600Y-114400000D02*
X108422600Y-114224746D01*
X108422600Y-118652600D02*
X108670000Y-118900000D01*
X108422600Y-114224746D02*
X109404846Y-113242500D01*
X104458600Y-111585800D02*
X104458600Y-109610000D01*
X105065200Y-112192400D02*
X105110000Y-112147600D01*
X104458600Y-108738600D02*
X104180000Y-108460000D01*
X105065200Y-112192400D02*
X105140000Y-112117600D01*
X104458600Y-109610000D02*
X104458600Y-108738600D01*
X108422600Y-118550000D02*
X108422600Y-118652600D01*
X116945000Y-108933388D02*
X116659212Y-108647600D01*
X116945000Y-108933388D02*
X116945000Y-110404800D01*
X113972601Y-107058600D02*
X113972601Y-107323871D01*
X113972601Y-107323871D02*
X116210000Y-109561270D01*
X113276100Y-116613900D02*
X111230000Y-118660000D01*
X111230000Y-119980000D02*
X110390000Y-120820000D01*
X116210000Y-115880000D02*
X115476100Y-116613900D01*
X116210000Y-109561270D02*
X116210000Y-115880000D01*
X115476100Y-116613900D02*
X113276100Y-116613900D01*
X111230000Y-118660000D02*
X111230000Y-119980000D01*
X117429664Y-134628600D02*
X115358600Y-134628600D01*
X118103600Y-133954664D02*
X117429664Y-134628600D01*
X101561791Y-122047162D02*
X101561791Y-121715604D01*
X102908600Y-132308600D02*
X102908600Y-123393971D01*
X115358600Y-134628600D02*
X115350000Y-134620000D01*
X112570000Y-135530000D02*
X112570000Y-136120000D01*
X118103600Y-108900899D02*
X118103600Y-133954664D01*
X106010000Y-136386024D02*
X106010000Y-135410000D01*
X113480000Y-134620000D02*
X112570000Y-135530000D01*
X102908600Y-123393971D02*
X101561791Y-122047162D01*
X102908600Y-132308600D02*
X106010000Y-135410000D01*
X115350000Y-134620000D02*
X113480000Y-134620000D01*
X117347600Y-108144899D02*
X118103600Y-108900899D01*
D46*
X116120000Y-132510000D02*
X115847500Y-132510000D01*
X115847500Y-132510000D02*
X114798750Y-133558750D01*
X108460000Y-132737600D02*
X108280000Y-132557600D01*
X108460000Y-134960000D02*
X108460000Y-132737600D01*
X102870000Y-134414800D02*
X102818555Y-134414800D01*
X102818555Y-134414800D02*
X100907179Y-132503424D01*
D45*
X108528600Y-120108600D02*
X109361400Y-120108600D01*
X107120000Y-112540000D02*
X108117800Y-113537800D01*
X109361400Y-120086154D02*
X110650000Y-118797554D01*
X105040000Y-108410000D02*
X105070000Y-108380000D01*
X108117800Y-113537800D02*
X108117800Y-119697800D01*
X111090000Y-118368948D02*
X111090000Y-117990000D01*
X110650000Y-118797554D02*
X110661394Y-118797554D01*
X108117800Y-119697800D02*
X108528600Y-120108600D01*
X107120000Y-112550000D02*
X107120000Y-112540000D01*
X110661394Y-118797554D02*
X111090000Y-118368948D01*
X109361400Y-120108600D02*
X109361400Y-120086154D01*
X102570000Y-107720000D02*
X100620000Y-107720000D01*
X105040000Y-111110000D02*
X105040000Y-108410000D01*
X106791656Y-117981656D02*
X106791656Y-114870200D01*
X107589200Y-118779200D02*
X107000000Y-118190000D01*
X107589200Y-118800000D02*
X107589200Y-118779200D01*
X110471400Y-119800000D02*
X110591400Y-119648600D01*
X109795700Y-120475700D02*
X110471400Y-119800000D01*
X107000000Y-118190000D02*
X106791656Y-117981656D01*
X108265700Y-120475700D02*
X109795700Y-120475700D01*
X107589200Y-119799200D02*
X108265700Y-120475700D01*
X107589200Y-118800000D02*
X107589200Y-119799200D01*
X95632000Y-112392000D02*
X94450000Y-111210000D01*
X101730000Y-118942332D02*
X100715293Y-117927625D01*
X97714467Y-107756185D02*
X97907068Y-107756185D01*
X94450000Y-111210000D02*
X94450000Y-108700000D01*
X94450000Y-108700000D02*
X94741400Y-108408600D01*
X95632000Y-112440000D02*
X95632000Y-112392000D01*
X100715293Y-117927625D02*
X100310070Y-117927625D01*
X94741400Y-108408600D02*
X97062052Y-108408600D01*
X101730000Y-119440000D02*
X101730000Y-118942332D01*
X97062052Y-108408600D02*
X97714467Y-107756185D01*
X96087600Y-111263600D02*
X96087600Y-112033423D01*
X104680000Y-119586788D02*
X104680000Y-118240000D01*
X104250200Y-120016588D02*
X104680000Y-119586788D01*
X96087600Y-112033423D02*
X96430000Y-112375823D01*
X97630000Y-110777400D02*
X97630000Y-108588206D01*
X97630000Y-108588206D02*
X97730606Y-108487600D01*
D51*
X107650000Y-102780000D02*
X107650000Y-106340000D01*
X107650000Y-106340000D02*
X107290000Y-106700000D01*
D46*
X112730000Y-130540000D02*
X111650000Y-129460000D01*
X111650000Y-124100000D02*
X112500000Y-123250000D01*
X111650000Y-129460000D02*
X111650000Y-124100000D01*
X107500000Y-122638322D02*
X106484475Y-123653847D01*
X104680000Y-130410000D02*
X104680000Y-127104315D01*
X104680000Y-127104315D02*
X104766515Y-127017800D01*
X97360000Y-128200000D02*
X95930000Y-129630000D01*
X95840000Y-129720000D02*
X95840000Y-130030000D01*
X97553360Y-128200000D02*
X97360000Y-128200000D01*
X95930000Y-129630000D02*
X95840000Y-129720000D01*
D50*
X99780000Y-101360000D02*
X99270000Y-101360000D01*
X99350000Y-101360000D02*
X99780000Y-101360000D01*
X96870700Y-107852399D02*
X95441101Y-107852399D01*
X99270000Y-101360000D02*
X98815000Y-101815000D01*
X98815000Y-104735000D02*
X98090000Y-105460000D01*
X95441101Y-107852399D02*
X95413500Y-107880000D01*
X98815000Y-101815000D02*
X98815000Y-104735000D01*
X98267947Y-106688981D02*
X98252399Y-106704529D01*
X99830000Y-102610000D02*
X101060000Y-103840000D01*
X101060000Y-103840000D02*
X101060000Y-105630000D01*
X100001019Y-106688981D02*
X98267947Y-106688981D01*
X101060000Y-105630000D02*
X100100000Y-106590000D01*
X99780000Y-102610000D02*
X99350000Y-102610000D01*
X100100000Y-106590000D02*
X100001019Y-106688981D01*
X99780000Y-102610000D02*
X99830000Y-102610000D01*
X100200000Y-103860000D02*
X100570000Y-104230000D01*
X100570000Y-104230000D02*
X100570000Y-105330000D01*
X99800000Y-106100000D02*
X98730000Y-106100000D01*
X98730000Y-106100000D02*
X98690000Y-106060000D01*
X100570000Y-105330000D02*
X99800000Y-106100000D01*
X99780000Y-103860000D02*
X100200000Y-103860000D01*
D46*
X116180000Y-123800000D02*
X115408004Y-123800000D01*
X115408004Y-123800000D02*
X114660000Y-124548004D01*
X107160000Y-123870000D02*
X106640000Y-124390000D01*
X109280000Y-123870000D02*
X107160000Y-123870000D01*
D50*
X99570000Y-127910000D02*
X99508160Y-127848160D01*
X101210000Y-128240000D02*
X99900000Y-128240000D01*
X99508160Y-127848160D02*
X99508160Y-127250000D01*
X99900000Y-128240000D02*
X99570000Y-127910000D01*
D45*
X111015000Y-103880000D02*
X111125000Y-103770000D01*
X111015000Y-104650000D02*
X111015000Y-103880000D01*
D50*
X99858160Y-124830000D02*
X99508160Y-125180000D01*
X101230000Y-124830000D02*
X99858160Y-124830000D01*
X106200000Y-119610000D02*
X106200000Y-115423328D01*
X105600000Y-120210000D02*
X106200000Y-119610000D01*
X106200000Y-115423328D02*
X106200728Y-115422600D01*
X105580000Y-120210000D02*
X105600000Y-120210000D01*
X107589200Y-114870000D02*
X107037000Y-114317800D01*
X107037000Y-114317800D02*
X106412200Y-114317800D01*
X105520000Y-115210000D02*
X105520000Y-118080000D01*
X106412200Y-114317800D02*
X105520000Y-115210000D01*
D47*
X98230000Y-104390000D02*
X98230000Y-103920000D01*
D44*
X99940000Y-98700000D02*
X99780000Y-98860000D01*
X103010000Y-98700000D02*
X103020000Y-98700000D01*
X107310000Y-97610000D02*
X106790000Y-98130001D01*
X103010000Y-98700000D02*
X99940000Y-98700000D01*
X111530000Y-97680000D02*
X111780000Y-97930000D01*
D47*
X97272399Y-105347601D02*
X98230000Y-104390000D01*
X98250000Y-99570000D02*
X98230000Y-99590000D01*
D44*
X106330000Y-98240000D02*
X106680000Y-98240000D01*
X103480000Y-98240000D02*
X106330000Y-98240000D01*
D47*
X98321677Y-120260715D02*
X98547396Y-120034996D01*
X99780000Y-98860000D02*
X99750000Y-98860000D01*
D44*
X109150000Y-97680000D02*
X111530000Y-97680000D01*
D47*
X102572800Y-102780000D02*
X102547600Y-102754800D01*
D44*
X107760000Y-97470000D02*
X108940000Y-97470000D01*
D47*
X94634102Y-105347601D02*
X97272399Y-105347601D01*
X98230000Y-99590000D02*
X98230000Y-103920000D01*
D44*
X109150000Y-97680000D02*
X109040000Y-97570000D01*
X106790000Y-98130001D02*
X106790000Y-98700000D01*
D47*
X96293115Y-120260715D02*
X96272400Y-120240000D01*
X98321677Y-120260715D02*
X96293115Y-120260715D01*
D44*
X107450001Y-97470000D02*
X107310000Y-97610000D01*
D47*
X99750000Y-98860000D02*
X99720000Y-98830000D01*
X98250000Y-99270000D02*
X98250000Y-99570000D01*
D44*
X103020000Y-98700000D02*
X103480000Y-98240000D01*
D47*
X99720000Y-98830000D02*
X98690000Y-98830000D01*
D44*
X106680000Y-98240000D02*
X107310000Y-97610000D01*
X107760000Y-97470000D02*
X107450001Y-97470000D01*
D47*
X98690000Y-98830000D02*
X98250000Y-99270000D01*
D44*
X108940000Y-97470000D02*
X109150000Y-97680000D01*
D51*
X111299958Y-105298716D02*
X112448716Y-105298716D01*
X112448716Y-105298716D02*
X112632972Y-105482972D01*
D50*
X98185163Y-112113775D02*
X97010000Y-110938612D01*
X98185163Y-112753599D02*
X98185163Y-112113775D01*
X97010000Y-110938612D02*
X97010000Y-109860000D01*
X97010000Y-109860000D02*
X96500000Y-109350000D01*
X96500000Y-109350000D02*
X95200000Y-109350000D01*
X95980000Y-110350000D02*
X96090000Y-110350000D01*
X97432803Y-112745651D02*
X97432803Y-111859783D01*
X96640000Y-110720000D02*
X96270000Y-110350000D01*
X96640000Y-111066980D02*
X96640000Y-110720000D01*
X96270000Y-110350000D02*
X95980000Y-110350000D01*
X95200000Y-110350000D02*
X95980000Y-110350000D01*
X97432803Y-111859783D02*
X96640000Y-111066980D01*
D49*
X112500000Y-120362988D02*
X110847600Y-122015388D01*
X110847600Y-133842400D02*
X110000000Y-134690000D01*
X112500000Y-119750000D02*
X112500000Y-120362988D01*
X110000000Y-134690000D02*
X110000000Y-137500000D01*
X110847600Y-122015388D02*
X110847600Y-133842400D01*
X105270000Y-124366897D02*
X105270000Y-122000000D01*
X107150000Y-134207600D02*
X105632400Y-132690000D01*
X105740000Y-124836897D02*
X105270000Y-124366897D01*
X105632400Y-132690000D02*
X105632400Y-128192400D01*
X107500000Y-137500000D02*
X107155000Y-137155000D01*
X105740000Y-128084800D02*
X105740000Y-124836897D01*
X107155000Y-137155000D02*
X107155000Y-135572600D01*
X107155000Y-135572600D02*
X107150000Y-135567600D01*
X107150000Y-135567600D02*
X107150000Y-134207600D01*
X105632400Y-128192400D02*
X105740000Y-128084800D01*
X102890000Y-137500000D02*
X105000000Y-137500000D01*
X98555760Y-121444240D02*
X98555760Y-131605760D01*
X101902400Y-134952400D02*
X101902400Y-136512400D01*
X100250000Y-119750000D02*
X98555760Y-121444240D01*
X98555760Y-131605760D02*
X101902400Y-134952400D01*
X101902400Y-136512400D02*
X102890000Y-137500000D01*
M02*
