M48
; DRILL file {KiCad 8.0.9-8.0.9-0~ubuntu20.04.1} date 2025-05-27T12:40:47+0900
; FORMAT={-:-/ absolute / metric / decimal}
; #@! TF.CreationDate,2025-05-27T12:40:47+09:00
; #@! TF.GenerationSoftware,Kicad,Pcbnew,8.0.9-8.0.9-0~ubuntu20.04.1
; #@! TF.FileFunction,MixedPlating,1,4
FMAT,2
METRIC
; #@! TA.AperFunction,Plated,PTH,ViaDrill
T1C0.250
; #@! TA.AperFunction,Plated,PTH,ViaDrill
T2C0.300
; #@! TA.AperFunction,Plated,PTH,ViaDrill
T3C0.400
; #@! TA.AperFunction,Plated,PTH,ComponentDrill
T4C0.400
; #@! TA.AperFunction,Plated,PTH,ViaDrill
T5C0.500
; #@! TA.AperFunction,Plated,PTH,ComponentDrill
T6C0.500
; #@! TA.AperFunction,Plated,PTH,ViaDrill
T7C0.600
; #@! TA.AperFunction,Plated,PTH,ViaDrill
T8C0.800
; #@! TA.AperFunction,Plated,PTH,ComponentDrill
T9C0.800
; #@! TA.AperFunction,Plated,PTH,ViaDrill
T10C0.900
; #@! TA.AperFunction,Plated,PTH,ViaDrill
T11C1.000
; #@! TA.AperFunction,Plated,PTH,ViaDrill
T12C1.200
%
G90
G05
T1
X100.496Y-114.098
X101.922Y-114.0
X110.39Y-120.82
T2
X95.413Y-107.88
X95.632Y-112.44
X96.088Y-111.264
X96.43Y-112.376
X96.871Y-107.852
X97.433Y-112.746
X97.63Y-110.777
X97.684Y-120.97
X97.731Y-108.488
X97.907Y-107.756
X98.09Y-105.46
X98.185Y-112.754
X98.252Y-106.705
X98.54Y-115.327
X98.69Y-106.06
X99.37Y-116.71
X99.508Y-125.18
X99.508Y-127.25
X100.31Y-117.928
X100.62Y-107.72
X100.907Y-132.503
X101.21Y-128.24
X101.23Y-124.83
X101.26Y-102.88
X101.562Y-121.716
X101.73Y-119.44
X102.282Y-111.0
X102.57Y-107.72
X102.87Y-134.415
X103.65Y-134.415
X104.18Y-108.46
X104.25Y-120.017
X104.68Y-118.24
X104.68Y-130.41
X104.767Y-127.018
X104.89Y-113.02
X105.04Y-111.11
X105.065Y-112.192
X105.07Y-108.38
X105.37Y-135.6
X105.52Y-118.08
X105.56Y-102.89
X105.58Y-120.21
X106.01Y-136.386
X106.201Y-115.423
X106.484Y-123.654
X106.64Y-124.39
X106.792Y-114.87
X107.01Y-121.542
X107.03Y-119.225
X107.12Y-112.55
X107.434Y-130.612
X107.589Y-114.87
X108.28Y-132.558
X108.46Y-134.96
X108.67Y-118.9
X109.12Y-119.58
X109.2Y-114.195
X109.28Y-123.87
X109.358Y-113.309
X110.591Y-119.649
X111.09Y-117.99
X111.3Y-105.299
X111.43Y-135.44
X111.439Y-134.621
X112.02Y-116.55
X112.34Y-112.21
X112.57Y-136.12
X112.633Y-105.483
X112.695Y-133.736
X112.73Y-130.54
X113.852Y-103.85
X114.37Y-116.05
X114.66Y-124.548
X114.69Y-111.363
X114.799Y-133.559
X115.36Y-118.795
X116.09Y-119.12
X116.105Y-130.383
X116.12Y-132.51
X116.18Y-123.8
X116.64Y-119.711
X116.945Y-110.405
T3
X95.84Y-130.03
X96.272Y-120.24
X97.553Y-128.2
X98.547Y-120.035
X99.637Y-130.425
X101.65Y-132.2
X102.33Y-130.4
X102.548Y-102.755
X103.73Y-127.018
X104.3Y-99.27
X107.29Y-106.7
X107.65Y-102.78
X109.2Y-133.912
X109.41Y-132.33
X109.5Y-117.83
X109.672Y-102.038
X109.845Y-130.55
X112.302Y-129.125
X112.75Y-126.94
X113.973Y-107.059
X116.659Y-108.648
X117.19Y-134.05
X117.32Y-132.41
X117.348Y-108.145
T4
X100.73Y-126.57
X101.73Y-126.57
X108.76Y-125.42
X109.76Y-125.42
X115.72Y-125.46
X116.72Y-125.46
T5
X94.634Y-105.348
X95.12Y-129.34
X101.77Y-100.09
X103.71Y-129.323
X109.04Y-97.57
T6
X95.2Y-109.35
X95.2Y-110.35
X96.75Y-113.48
X96.75Y-114.73
X96.75Y-115.98
X99.78Y-98.86
X99.78Y-100.11
X99.78Y-101.36
X99.78Y-102.61
X99.78Y-103.86
X103.01Y-98.7
X103.01Y-99.95
X103.01Y-101.2
T7
X106.46Y-107.85
X106.73Y-102.28
T8
X107.67Y-122.78
X112.872Y-123.145
T9
X105.0Y-137.5
X107.5Y-137.5
X110.0Y-137.5
T10
X99.93Y-123.52
T11
X107.05Y-129.473
X107.64Y-126.188
X114.1Y-129.473
X114.645Y-126.215
T12
X95.07Y-121.33
X102.86Y-121.82
X103.4Y-113.0
X107.62Y-111.14
M30
